<?xml version="1.0" standalone="no"?>
<!DOCTYPE svg PUBLIC "-//W3C//DTD SVG 1.1//EN" "http://www.w3.org/Graphics/SVG/1.1/DTD/svg11.dtd" >
<svg xmlns="http://www.w3.org/2000/svg">
<metadata>Generated by IcoMoon</metadata>
<defs>
<font id="tao" horiz-adv-x="512">
<font-face units-per-em="512" ascent="480" descent="-32" />
<missing-glyph horiz-adv-x="512" />
<glyph unicode="&#x20;" d="" horiz-adv-x="256" />
<glyph unicode="&#xe600;" d="M256.16 4.592c-121.216 0-219.472 98.224-219.472 219.408s98.256 219.408 219.472 219.408c121.232 0 219.488-98.224 219.488-219.408s-98.256-219.408-219.488-219.408z" />
<glyph unicode="&#xe601;" d="M457.392 343.136v-237.712c0-22.672-8.048-42.048-24.144-58.144s-35.472-24.144-58.144-24.144h-237.712c-22.672 0-42.048 8.048-58.144 24.144s-24.144 35.472-24.144 58.144v237.712c0 22.672 8.048 42.048 24.144 58.144s35.472 24.144 58.144 24.144h237.712c22.672 0 42.048-8.048 58.144-24.144s24.144-35.472 24.144-58.144z" />
<glyph unicode="&#xe602;" d="M490.666-10.666h-241.333l-209.333 209.166q-18.666 18.666-18.666 45.166 0 26.666 18.666 45.334l151 151q18.666 18.666 45.166 18.666 26.666 0 45.334-18.666l209.167-209.333v-241.333zM70.166 228.667l196.834-196.667h181v181l-196.667 196.833q-6.333 6.167-15.167 6.167t-15-6.167l-151-151q-6.166-6.166-6.166-15t6.166-15.167zM330.666 96q-22.166 0-37.75 15.584t-15.584 37.75 15.584 37.75 37.75 15.584 37.75-15.584 15.584-37.75-15.584-37.75-37.75-15.584zM330.666 138.666q4.334 0 7.5 3.166t3.166 7.5-3.166 7.5-7.5 3.166-7.5-3.166-3.166-7.5 3.166-7.5 7.5-3.166z" />
<glyph unicode="&#xe604;" d="M461.428 480q20 0 35-13.286t15-33.286q0-18-12.857-43.143-94.857-179.714-132.857-214.857-27.714-26-62.286-26-36 0-61.857 26.428t-25.857 62.714q0 36.572 26.286 60.572l182.286 165.429q16.857 15.428 37.143 15.428zM201.714 184.572q11.143-21.714 30.428-37.143t43-21.714l0.286-20.286q1.143-60.857-37-99.143t-99.572-38.285q-35.143 0-62.285 13.286t-43.572 36.428-24.715 52.286-8.286 62.857q2-1.428 11.714-8.572t17.715-12.714 16.857-10.428 13.143-4.857q11.715 0 15.715 10.572 7.143 18.857 16.428 32.143t19.857 21.714 25.143 13.572 29.429 7.286 35.714 3z" />
<glyph unicode="&#xe605;" d="M224 336c0 61.856-50.144 112-112 112s-112-50.144-112-112c0-41.455 30.524-81.646 64-101.012v-202.988l20.583-32h28.959l36.458 32v32l-22 32 32 32-32 32 31.666 31.666 0.334 40.321c33.476 19.366 64 62.558 64 104.013zM112 420c15.464 0 28-12.536 28-28s-12.536-28-28-28-28 12.536-28 28 12.536 28 28 28zM288.525 171.393c-7.338-2.347-21.569-6.589-32.525-10.727-11.137-4.206-30.007-14.018-43.215-19.968v3c0 22.151 2.95 40.688 8.839 55.598 18.042 44.85 66.736 67.275 146.092 67.275h37.399v42.741c0 2.895 1.060 5.401 3.177 7.52 2.109 2.118 4.622 3.173 7.516 3.168 2.895-0.004 5.405-1.064 7.515-3.168l85.491-85.487c2.109-2.118 3.168-4.62 3.168-7.524h0.018c0-2.884-1.060-5.385-3.168-7.505l-85.491-85.492c-2.11-2.108-4.62-3.168-7.515-3.168s-5.396 1.060-7.515 3.168c-2.118 2.109-3.178 4.622-3.178 7.516v42.74h-37.399c-10.902 0-28.737-0.335-39.4-1.080-16.48-1.151-30.446-5.613-39.809-8.607z" />
<glyph unicode="&#xe606;" d="M32 192.857v63.428q0 3.429 2.285 6.572t5.428 3.714l53.143 8q4 13.143 11.143 26.286-11.428 16.286-30.572 39.428-2.857 3.429-2.857 6.857 0 2.857 2.572 6.571 7.428 10.286 28.143 30.714t27 20.429q3.714 0 7.428-2.857l39.428-30.572q12.572 6.572 26 10.857 4.572 38.857 8.286 53.143 2 8 10.286 8h63.428q4 0 7-2.428t3.286-6.143l8-52.572q14-4.572 25.714-10.572l40.572 30.572q2.572 2.572 6.857 2.572 3.714 0 7.143-2.857 36.857-34 47.143-48.572 2-2.285 2-6.285 0-3.429-2.286-6.572-4.286-6-14.572-19t-15.428-20.143q7.428-14.285 11.714-28l52.286-8q3.714-0.571 6-3.571t2.286-6.714v-63.428q0-3.428-2.286-6.572t-5.714-3.714l-52.857-8q-5.428-15.428-11.143-26 10-14.286 30.572-39.428 2.857-3.428 2.857-7.143t-2.572-6.572q-7.714-10.572-28.286-30.857t-26.857-20.286q-3.428 0-7.428 2.572l-39.428 30.857q-12.572-6.572-26-10.857-4.572-38.857-8.286-53.143-2-8-10.286-8h-63.428q-4 0-7 2.428t-3.286 6.143l-8 52.572q-14 4.572-25.714 10.572l-40.286-30.572q-2.857-2.572-7.143-2.572-4 0-7.143 3.143-36 32.572-47.143 48-2 2.857-2 6.572 0 3.428 2.285 6.572 4.285 6 14.572 19t15.428 20.143q-7.715 14.286-11.715 28.286l-52.285 7.714q-3.715 0.572-6 3.572t-2.285 6.714zM178.286 224q0-30.286 21.428-51.714t51.714-21.428 51.714 21.428 21.428 51.714-21.428 51.714-51.714 21.428-51.714-21.428-21.428-51.714z" />
<glyph unicode="&#xe607;" d="M0 123.428v237.714q0 34 24.143 58.143t58.143 24.143h237.714q18 0 33.428-7.143 4.286-2 5.143-6.571 0.857-4.857-2.572-8.286l-14-14q-4-4-9.143-2.286-6.572 1.714-12.857 1.714h-237.714q-18.857 0-32.285-13.428t-13.428-32.285v-237.715q0-18.857 13.428-32.286t32.285-13.428h237.714q18.857 0 32.286 13.428t13.428 32.286v36q0 3.714 2.572 6.286l18.286 18.286q4.286 4.286 10 2t5.714-8.286v-54.286q0-34-24.143-58.143t-58.143-24.143h-237.714q-34 0-58.143 24.143t-24.143 58.143zM182.857 114.286v82.286l192 192 82.286-82.286-192-192h-82.286zM210.286 169.143h27.428v-27.428h16l33.143 33.143-43.428 43.428-33.143-33.143v-16zM269.714 237.714q4.572-4.572 9.428 0.286l100 100q4.857 4.857 0.286 9.428t-9.428-0.286l-100-100q-4.857-4.857-0.286-9.428zM393.143 406.857l26.286 26.286q8 8 19.428 8t19.428-8l43.428-43.428q8-8 8-19.428t-8-19.429l-26.286-26.285z" />
<glyph unicode="&#xe608;" d="M143.525 287.25h76.041c17.513 14.241 37.752 25.258 59.824 32.125h-109.073l-26.792-32.125zM90.004 223h79.626c5.264 11.403 11.678 22.164 19.11 32.125h-71.977l-26.759-32.125zM153.167 147.791c0 14.853 1.815 29.279 5.213 43.084h-116.061l133.833 160.625h162.664l21.823-26.186c19.758-3.070 38.446-9.365 55.521-18.321l-63.66 76.632h-192l-160-192.75v-127.25c0-17.757 14.368-32.125 32.125-32.125h163.266c-26.641 31.341-42.724 71.935-42.724 116.291zM504.641 200.486c5.105-16.665 7.859-34.357 7.859-52.695 0-44.356-16.083-84.95-42.724-116.291h10.724c17.757 0 32.125 14.368 32.125 32.125v127.25l-7.984 9.611zM336.5 287.5c-79.529 0-144-64.471-144-144s64.471-144 144-144 144 64.471 144 144-64.471 144-144 144zM352.5 127.5v-96h-32v96h-96v32h96v96h32v-96h96v-32h-96z" />
<glyph unicode="&#xe609;" d="M336.5 287.5c-79.529 0-144-64.471-144-144s64.471-144 144-144 144 64.471 144 144-64.471 144-144 144zM224.5 127.5v32h224v-32h-224zM143.525 287.25h76.041c17.513 14.241 37.752 25.258 59.824 32.125h-109.073l-26.792-32.125zM90.004 223h79.626c5.264 11.403 11.678 22.164 19.11 32.125h-71.977l-26.759-32.125zM153.167 147.791c0 14.853 1.815 29.279 5.213 43.084h-116.061l133.833 160.625h162.664l21.823-26.186c19.758-3.070 38.446-9.365 55.521-18.321l-63.66 76.632h-192l-160-192.75v-127.25c0-17.757 14.368-32.125 32.125-32.125h163.266c-26.641 31.341-42.724 71.935-42.724 116.291zM504.641 200.486c5.105-16.665 7.859-34.357 7.859-52.695 0-44.356-16.083-84.95-42.724-116.291h10.724c17.757 0 32.125 14.368 32.125 32.125v127.25l-7.984 9.611z" />
<glyph unicode="&#xe60a;" d="M352 392h-192l-160-192v-128c0-17.673 14.327-32 32-32h448c17.674 0 32 14.327 32 32v128l-160 192zM320 136h-128l-32 32h192l-32-32zM41.655 200l133.333 160h162.024l133.333-160h-428.69zM142.482 296h227.036l-26.667 32h-173.703zM89.149 232h333.703l-26.667 32h-280.37z" />
<glyph unicode="&#xe60b;" d="M352 288h-320c-17.5 0-32-16-32-32v-64c0-16 16-32 32-32h320c16 0 32 16 32 32v64c0 16-16 32-32 32zM64 192h-32v64h32v-64zM128 192h-32v64h32v-64zM192 192h-32v64h32v-64zM256 192h-32v64h32v-64zM352 128h-320c-17.5 0-32-16-32-32v-64c0-16 16-32 32-32h320c16 0 32 16 32 32v64c0 16-16 32-32 32zM64 32h-32v64h32v-64zM128 32h-32v64h32v-64zM192 32h-32v64h32v-64zM256 32h-32v64h32v-64zM352 448h-320c-17.5 0-32-16-32-32v-64c0-16 16-32 32-32h320c16 0 32 16 32 32v64c0 16-16 32-32 32zM64 352h-32v64h32v-64zM128 352h-32v64h32v-64zM192 352h-32v64h32v-64zM256 352h-32v64h32v-64zM352 384h-32v32h32v-32z" horiz-adv-x="384" />
<glyph unicode="&#xe60c;" d="M0 105.143v274.286q0 26.286 18.857 45.143t45.143 18.857h91.428q26.286 0 45.143-18.857t18.857-45.143v-9.143h192q26.286 0 45.143-18.857t18.857-45.143v-201.143q0-26.286-18.857-45.143t-45.143-18.857h-347.428q-26.285 0-45.143 18.857t-18.857 45.143z" horiz-adv-x="476" />
<glyph unicode="&#xe60d;" d="M0 105.143v274.286q0 26.286 18.857 45.143t45.143 18.857h91.428q26.286 0 45.143-18.857t18.857-45.143v-9.143h155.428q26.286 0 45.143-18.857t18.857-45.143v-45.714h-237.714q-26.857 0-56.286-13.572t-46.857-34.143l-97.715-114.857q0 1.143-0.143 3.572t-0.143 3.572zM20.857 57.143q0 8.857 8.857 18.857l96 113.143q12.286 14.572 34.428 24.714t41 10.143h310.857q9.715 0 17.285-3.715t7.572-12.286q0-8.857-8.857-18.857l-96-113.143q-12.286-14.572-34.428-24.714t-41-10.143h-310.857q-9.715 0-17.285 3.714t-7.572 12.286z" horiz-adv-x="549" />
<glyph unicode="&#xe60e;" d="M179.143 324.572q0-3.715-2.857-6.572l-112.285-112.286 112.285-112.286q2.857-2.857 2.857-6.572t-2.857-6.572l-14.286-14.286q-2.857-2.857-6.572-2.857t-6.572 2.857l-133.143 133.143q-2.857 2.857-2.857 6.572t2.857 6.572l133.143 133.143q2.857 2.857 6.572 2.857t6.572-2.857l14.286-14.286q2.857-2.857 2.857-6.571z" horiz-adv-x="183" />
<glyph unicode="&#xe60f;" d="M170 205.714q0-3.714-2.857-6.572l-133.143-133.143q-2.857-2.857-6.572-2.857t-6.572 2.857l-14.286 14.286q-2.857 2.857-2.857 6.572t2.857 6.572l112.285 112.286-112.285 112.286q-2.857 2.857-2.857 6.572t2.857 6.572l14.285 14.286q2.857 2.857 6.572 2.857t6.572-2.857l133.143-133.143q2.857-2.857 2.857-6.572z" horiz-adv-x="183" />
<glyph unicode="&#xe610;" d="M307.143 141.714q0-3.714-2.857-6.572l-14.286-14.286q-2.857-2.857-6.572-2.857t-6.572 2.857l-112.286 112.286-112.285-112.286q-2.857-2.857-6.572-2.857t-6.572 2.857l-14.285 14.286q-2.857 2.857-2.857 6.572t2.857 6.572l133.143 133.143q2.857 2.857 6.571 2.857t6.572-2.857l133.143-133.143q2.857-2.857 2.857-6.572z" horiz-adv-x="329" />
<glyph unicode="&#xe611;" d="M307.143 269.714q0-3.714-2.857-6.572l-133.143-133.143q-2.857-2.857-6.571-2.857t-6.572 2.857l-133.143 133.143q-2.857 2.857-2.857 6.571t2.857 6.572l14.285 14.286q2.857 2.857 6.572 2.857t6.572-2.857l112.285-112.286 112.285 112.286q2.857 2.857 6.572 2.857t6.572-2.857l14.286-14.286q2.857-2.857 2.857-6.572z" horiz-adv-x="329" />
<glyph unicode="&#xe612;" d="M512 160q0-47.428-36.286-128.857-0.857-2-3-6.857t-3.857-8.572-3.714-6.286q-3.428-4.857-8-4.857-4.286 0-6.714 2.857t-2.428 7.143q0 2.572 0.714 7.572t0.714 6.714q1.428 19.428 1.428 35.143 0 28.857-5 51.714t-13.857 39.572-22.857 28.857-30.143 19.857-38 12.143-44 6.143-50.143 1.714h-64v-73.143q0-7.428-5.429-12.857t-12.857-5.428-12.857 5.428l-146.286 146.286q-5.428 5.428-5.428 12.857t5.428 12.857l146.286 146.286q5.428 5.428 12.857 5.428t12.857-5.428 5.428-12.857v-73.143h64q203.714 0 250-115.143 15.143-38.285 15.143-95.143z" />
<glyph unicode="&#xe613;" d="M512 297.143q0-7.429-5.428-12.857l-146.286-146.286q-5.428-5.428-12.857-5.428t-12.857 5.428-5.428 12.857v73.143h-64q-28 0-50.143-1.715t-44-6.143-38-12.143-30.143-19.857-22.857-28.857-13.857-39.572-5-51.714q0-15.714 1.428-35.143 0-1.714 0.715-6.714t0.715-7.572q0-4.286-2.428-7.143t-6.715-2.857q-4.572 0-8 4.857-2 2.572-3.715 6.286t-3.857 8.572-3 6.857q-36.285 81.428-36.285 128.857 0 56.857 15.143 95.143 46.285 115.143 250 115.143h64v73.143q0 7.429 5.428 12.857t12.857 5.428 12.857-5.428l146.286-146.286q5.429-5.428 5.429-12.857z" />
<glyph unicode="&#xe614;" d="M512 196.572v237.714q0 3.714-2.714 6.428t-6.428 2.714h-457.143q-3.715 0-6.428-2.714t-2.715-6.428v-237.714q0-3.714 2.715-6.428t6.428-2.714h457.143q3.714 0 6.428 2.714t2.714 6.428zM548.572 434.286v-310.857q0-18.857-13.428-32.286t-32.286-13.428h-155.429q0-10.572 4.572-22.143t9.143-20.286 4.572-12.428q0-7.428-5.428-12.857t-12.857-5.428h-146.286q-7.428 0-12.857 5.428t-5.429 12.857q0 4 4.572 12.572t9.143 20 4.571 22.286h-155.429q-18.857 0-32.285 13.428t-13.428 32.286v310.857q0 18.857 13.428 32.286t32.285 13.428h457.143q18.857 0 32.285-13.428t13.428-32.286z" horiz-adv-x="549" />
<glyph unicode="&#xe615;" d="M118.857 114.286q-18.857 0-32.285 13.428t-13.428 32.286v201.143q0 18.857 13.428 32.285t32.285 13.428h310.857q18.857 0 32.286-13.428t13.428-32.285v-201.143q0-18.857-13.428-32.286t-32.286-13.428h-310.857zM109.715 361.143v-201.143q0-3.714 2.715-6.428t6.428-2.714h310.857q3.714 0 6.428 2.714t2.714 6.428v201.143q0 3.714-2.714 6.428t-6.428 2.714h-310.857q-3.715 0-6.428-2.714t-2.715-6.428zM502.857 96h45.714v-27.428q0-11.428-13.428-19.428t-32.286-8h-457.143q-18.857 0-32.285 8t-13.428 19.428v27.428h502.857zM297.143 68.572q4.572 0 4.572 4.572t-4.572 4.572h-45.714q-4.572 0-4.572-4.572t4.572-4.572h45.714z" horiz-adv-x="549" />
<glyph unicode="&#xe616;" d="M182.857 77.714q0 7.428-5.429 12.857t-12.857 5.428-12.857-5.428-5.428-12.857 5.428-12.857 12.857-5.428 12.857 5.428 5.428 12.857zM292.572 123.428v274.286q0 3.714-2.714 6.428t-6.428 2.714h-237.714q-3.715 0-6.428-2.714t-2.715-6.428v-274.286q0-3.714 2.715-6.428t6.428-2.714h237.714q3.714 0 6.428 2.714t2.714 6.428zM329.143 397.714v-310.857q0-18.857-13.428-32.286t-32.286-13.428h-237.714q-18.857 0-32.285 13.428t-13.428 32.286v310.857q0 18.857 13.428 32.286t32.285 13.428h237.714q18.857 0 32.286-13.428t13.428-32.286z" horiz-adv-x="329" />
<glyph unicode="&#xe617;" d="M132.571 77.714q0 9.428-6.715 16.143t-16.143 6.714-16.143-6.714-6.715-16.143 6.715-16.143 16.143-6.714 16.143 6.714 6.715 16.143zM192 123.428v201.143q0 3.714-2.714 6.428t-6.428 2.714h-146.286q-3.715 0-6.428-2.714t-2.715-6.428v-201.143q0-3.714 2.715-6.428t6.428-2.714h146.286q3.714 0 6.428 2.714t2.714 6.428zM137.143 365.714q0 4.572-4.571 4.572h-45.715q-4.572 0-4.572-4.572t4.572-4.571h45.715q4.572 0 4.572 4.571zM219.429 370.286v-292.572q0-14.857-10.857-25.714t-25.714-10.857h-146.286q-14.857 0-25.715 10.857t-10.857 25.714v292.572q0 14.857 10.857 25.714t25.715 10.857h146.286q14.857 0 25.714-10.857t10.857-25.714z" horiz-adv-x="220" />
<glyph unicode="&#xe618;" d="M512 224q0-7.428-5.428-12.857l-73.143-73.143q-5.428-5.428-12.857-5.428t-12.857 5.428-5.428 12.857v36.572h-109.714v-109.714h36.572q7.428 0 12.857-5.428t5.428-12.857-5.428-12.857l-73.143-73.143q-5.428-5.428-12.857-5.428t-12.857 5.428l-73.143 73.143q-5.428 5.428-5.428 12.857t5.428 12.857 12.857 5.428h36.571v109.714h-109.715v-36.572q0-7.428-5.428-12.857t-12.857-5.428-12.857 5.428l-73.143 73.143q-5.428 5.428-5.428 12.857t5.428 12.857l73.143 73.143q5.428 5.428 12.857 5.428t12.857-5.428 5.428-12.857v-36.572h109.715v109.714h-36.572q-7.428 0-12.857 5.429t-5.429 12.857 5.428 12.857l73.143 73.143q5.429 5.428 12.857 5.428t12.857-5.428l73.143-73.143q5.428-5.428 5.428-12.857t-5.428-12.857-12.857-5.429h-36.572v-109.714h109.714v36.572q0 7.428 5.428 12.857t12.857 5.429 12.857-5.428l73.143-73.143q5.428-5.429 5.428-12.857z" />
<glyph unicode="&#xe619;" d="M146.286 269.714v-164.571q0-4-2.571-6.572t-6.571-2.572h-18.285q-4 0-6.572 2.572t-2.572 6.572v164.572q0 4 2.572 6.571t6.572 2.571h18.285q4 0 6.572-2.571t2.571-6.572zM219.429 269.714v-164.571q0-4-2.571-6.572t-6.572-2.572h-18.286q-4 0-6.572 2.572t-2.571 6.572v164.572q0 4 2.571 6.571t6.572 2.571h18.286q4 0 6.572-2.571t2.571-6.572zM292.572 269.714v-164.571q0-4-2.572-6.572t-6.572-2.572h-18.286q-4 0-6.572 2.572t-2.571 6.572v164.572q0 4 2.571 6.571t6.572 2.571h18.286q4 0 6.572-2.571t2.572-6.572zM329.143 62.857v270.857h-256v-270.857q0-6.286 2-11.572t4.143-7.714 3-2.428h237.715q0.857 0 3 2.428t4.143 7.714 2 11.572zM137.143 370.286h128l-13.714 33.428q-2 2.572-4.857 3.143h-90.571q-2.857-0.571-4.857-3.143zM402.286 361.143v-18.286q0-4-2.572-6.572t-6.572-2.571h-27.428v-270.857q0-23.714-13.428-41t-32.286-17.286h-237.714q-18.857 0-32.285 16.714t-13.428 40.428v272h-27.428q-4 0-6.572 2.572t-2.571 6.571v18.286q0 4 2.571 6.572t6.572 2.571h88.285l20 47.714q4.285 10.572 15.429 18t22.572 7.429h91.428q11.428 0 22.572-7.429t15.428-18l20-47.714h88.286q4 0 6.572-2.571t2.572-6.572z" horiz-adv-x="403" />
<glyph unicode="&#xe61a;" d="M190.286 342.572q-17.143-26.286-39.143-78-6.286 12.857-10.571 20.714t-11.572 18.143-14.572 16.143-18 10-23.285 4.143h-64q-4 0-6.572 2.571t-2.571 6.572v54.857q0 4 2.571 6.571t6.572 2.572h64q71.429 0 117.143-64.286zM512 114.286q0-4-2.572-6.572l-91.428-91.428q-2.572-2.572-6.572-2.572-3.714 0-6.428 2.714t-2.714 6.428v54.857q-9.143 0-24.286-0.143t-23.143-0.286-20.857 0.286-20.286 1.428-18.286 3-18 5.286-16.572 8.143-16.857 11.428-15.714 15.286-16 19.857q16.857 26.572 38.857 78 6.286-12.857 10.572-20.714t11.572-18.143 14.572-16.143 18-10 23.286-4.143h73.143v54.857q0 4 2.572 6.572t6.572 2.572q3.428 0 6.857-2.857l91.143-91.143q2.572-2.572 2.572-6.572zM512 370.286q0-4-2.572-6.572l-91.428-91.428q-2.572-2.571-6.572-2.571-3.714 0-6.428 2.714t-2.714 6.429v54.857h-73.143q-13.714 0-24.857-4.286t-19.714-12.857-14.572-17.572-12.857-22.143q-9.143-17.714-22.286-48.857-8.286-18.857-14.143-31.714t-15.429-30-18.286-28.572-21.143-23.714-25.715-19.572-30.428-12-36.572-4.714h-64q-4 0-6.572 2.572t-2.571 6.572v54.857q0 4 2.571 6.572t6.572 2.572h64q13.715 0 24.857 4.286t19.715 12.857 14.572 17.572 12.857 22.143q9.143 17.714 22.286 48.857 8.286 18.857 14.143 31.715t15.429 30 18.286 28.572 21.143 23.714 25.715 19.572 30.428 12 36.572 4.714h73.143v54.857q0 4 2.572 6.571t6.572 2.572q3.428 0 6.857-2.857l91.143-91.143q2.572-2.572 2.572-6.572z" />
<glyph unicode="&#xe61b;" d="M109.715 41.143h256v73.143h-256v-73.143zM109.715 224h256v109.714h-45.714q-11.428 0-19.428 8t-8 19.428v45.714h-182.857v-182.857zM438.857 205.714q0 7.428-5.428 12.857t-12.857 5.428-12.857-5.428-5.428-12.857 5.428-12.857 12.857-5.428 12.857 5.428 5.428 12.857zM475.428 205.714v-118.857q0-3.714-2.714-6.428t-6.428-2.714h-64v-45.714q0-11.428-8-19.428t-19.428-8h-274.286q-11.428 0-19.428 8t-8 19.428v45.714h-64q-3.715 0-6.428 2.714t-2.715 6.428v118.857q0 22.572 16.143 38.714t38.715 16.143h18.285v155.429q0 11.428 8 19.428t19.428 8h192q11.428 0 25.143-5.714t21.714-13.714l43.428-43.429q8-8 13.714-21.714t5.714-25.143v-73.143h18.286q22.572 0 38.714-16.143t16.143-38.714z" horiz-adv-x="476" />
<glyph unicode="&#xe61c;" d="M109.715 59.428q0 7.428-5.428 12.857t-12.857 5.428-12.857-5.428-5.428-12.857 5.428-12.857 12.857-5.428 12.857 5.428 5.428 12.857zM293.714 179.428l-194.857-194.857q-10.572-10.572-25.715-10.572-14.857 0-26 10.572l-30.285 30.857q-10.857 10.286-10.857 25.714 0 15.143 10.857 26l194.571 194.571q11.143-28 32.714-49.571t49.572-32.714zM474.857 303.714q0-11.143-6.572-30.286-13.428-38.286-47-62.143t-73.857-23.857q-52.857 0-90.428 37.572t-37.572 90.428 37.572 90.428 90.428 37.572q16.572 0 34.714-4.714t30.714-13.286q4.572-3.143 4.572-8t-4.572-8l-83.714-48.286v-64l55.143-30.572q1.428 0.857 22.572 13.857t38.714 23.143 20.143 10.143q4.286 0 6.714-2.857t2.428-7.143z" horiz-adv-x="476" />
<glyph unicode="&#xe61d;" d="M256 224q0 30.286-21.428 51.714t-51.714 21.428-51.714-21.428-21.428-51.714 21.428-51.714 51.714-21.428 51.714 21.428 21.428 51.714zM475.428 77.714q0 14.857-10.857 25.714t-25.714 10.857-25.714-10.857-10.857-25.714q0-15.143 10.714-25.857t25.857-10.714 25.857 10.714 10.714 25.857zM475.428 370.286q0 14.857-10.857 25.714t-25.714 10.857-25.714-10.857-10.857-25.714q0-15.143 10.714-25.857t25.857-10.714 25.857 10.714 10.714 25.857zM365.714 250v-52.857q0-2.857-2-5.572t-4.572-3l-44.286-6.857q-3.143-10-9.143-21.714 9.714-13.714 25.714-32.857 2-2.857 2-5.714 0-3.428-2-5.428-6.572-8.572-23.572-25.572t-22.428-17q-3.143 0-6 2l-32.857 25.714q-10.571-5.428-22-8.857-3.143-30.857-6.571-44.286-2-6.857-8.572-6.857h-53.143q-3.143 0-5.714 2.143t-2.857 5l-6.572 43.714q-9.714 2.857-21.428 8.857l-33.715-25.428q-2-2-5.715-2-3.143 0-6 2.286-41.143 38-41.143 45.714 0 2.572 2 5.428 2.857 4 11.715 15.143t13.428 17.428q-6.572 12.572-10 23.428l-43.428 6.857q-2.857 0.286-4.857 2.714t-2 5.572v52.857q0 2.857 2 5.571t4.572 3l44.285 6.857q3.143 10 9.143 21.715-9.715 13.714-25.715 32.857-2 3.143-2 5.715 0 3.428 2 5.714 6.285 8.572 23.428 25.429t22.572 16.857q3.143 0 6-2l32.857-25.714q9.715 5.143 22 9.143 3.143 30.857 6.572 44 2 6.857 8.572 6.857h53.143q3.143 0 5.714-2.143t2.857-5l6.572-43.714q9.714-2.857 21.428-8.857l33.714 25.428q2.286 2 5.714 2 3.143 0 6-2.286 41.143-38 41.143-45.714 0-2.571-2-5.428-3.428-4.572-12-15.428t-12.857-17.143q6.572-13.715 9.714-23.429l43.428-6.572q2.857-0.571 4.857-3t2-5.572zM548.572 97.714v-40q0-4.572-42.572-8.857-3.428-7.714-8.572-14.857 14.572-32.286 14.572-39.428 0-1.143-1.143-2-34.857-20.286-35.428-20.286-2.286 0-13.143 13.428t-14.857 19.428q-5.714-0.572-8.572-0.572t-8.572 0.572q-4-6-14.857-19.428t-13.143-13.428q-0.572 0-35.428 20.286-1.143 0.857-1.143 2 0 7.143 14.572 39.428-5.143 7.143-8.572 14.857-42.572 4.286-42.572 8.857v40q0 4.572 42.572 8.857 3.714 8.286 8.572 14.857-14.572 32.286-14.572 39.428 0 1.143 1.143 2 1.143 0.572 10 5.714t16.857 9.714 8.572 4.572q2.286 0 13.143-13.286t14.857-19.286q5.714 0.572 8.572 0.572t8.572-0.572q14.572 20.286 26.286 32l1.714 0.572q1.143 0 35.428-20 1.143-0.857 1.143-2 0-7.143-14.572-39.428 4.857-6.572 8.572-14.857 42.572-4.286 42.572-8.857zM548.572 390.286v-40q0-4.572-42.572-8.857-3.428-7.714-8.572-14.857 14.572-32.286 14.572-39.428 0-1.143-1.143-2-34.857-20.286-35.428-20.286-2.286 0-13.143 13.428t-14.857 19.428q-5.714-0.571-8.572-0.571t-8.572 0.571q-4-6-14.857-19.428t-13.143-13.428q-0.572 0-35.428 20.286-1.143 0.857-1.143 2 0 7.143 14.572 39.428-5.143 7.143-8.572 14.857-42.572 4.286-42.572 8.857v40q0 4.572 42.572 8.857 3.714 8.285 8.572 14.857-14.572 32.286-14.572 39.428 0 1.143 1.143 2 1.143 0.572 10 5.715t16.857 9.714 8.572 4.571q2.286 0 13.143-13.285t14.857-19.286q5.714 0.572 8.572 0.572t8.572-0.572q14.572 20.286 26.286 32l1.714 0.572q1.143 0 35.428-20 1.143-0.857 1.143-2 0-7.143-14.572-39.429 4.857-6.571 8.572-14.857 42.572-4.286 42.572-8.857z" horiz-adv-x="549" />
<glyph unicode="&#xe61e;" d="M109.715 22.857v36.572q0 7.428-5.428 12.857t-12.857 5.428h-36.572q-7.428 0-12.857-5.428t-5.428-12.857v-36.572q0-7.428 5.428-12.857t12.857-5.428h36.572q7.428 0 12.857 5.428t5.428 12.857zM109.715 132.572v36.572q0 7.428-5.428 12.857t-12.857 5.428h-36.572q-7.428 0-12.857-5.428t-5.428-12.857v-36.572q0-7.428 5.428-12.857t12.857-5.428h36.572q7.428 0 12.857 5.428t5.428 12.857zM109.715 242.286v36.572q0 7.428-5.428 12.857t-12.857 5.428h-36.572q-7.428 0-12.857-5.428t-5.428-12.857v-36.572q0-7.428 5.428-12.857t12.857-5.429h36.572q7.428 0 12.857 5.428t5.428 12.857zM402.286 22.857v146.286q0 7.428-5.428 12.857t-12.857 5.428h-219.429q-7.429 0-12.857-5.428t-5.428-12.857v-146.286q0-7.428 5.428-12.857t12.857-5.428h219.429q7.428 0 12.857 5.428t5.428 12.857zM109.715 352v36.572q0 7.428-5.428 12.857t-12.857 5.428h-36.572q-7.428 0-12.857-5.428t-5.428-12.857v-36.572q0-7.428 5.428-12.857t12.857-5.429h36.572q7.428 0 12.857 5.428t5.428 12.857zM512 22.857v36.572q0 7.428-5.428 12.857t-12.857 5.428h-36.572q-7.428 0-12.857-5.428t-5.428-12.857v-36.572q0-7.428 5.428-12.857t12.857-5.428h36.572q7.428 0 12.857 5.428t5.428 12.857zM402.286 242.286v146.286q0 7.428-5.428 12.857t-12.857 5.429h-219.429q-7.429 0-12.857-5.429t-5.428-12.857v-146.286q0-7.428 5.428-12.857t12.857-5.429h219.429q7.428 0 12.857 5.428t5.428 12.857zM512 132.572v36.572q0 7.428-5.428 12.857t-12.857 5.428h-36.572q-7.428 0-12.857-5.428t-5.428-12.857v-36.572q0-7.428 5.428-12.857t12.857-5.428h36.572q7.428 0 12.857 5.428t5.428 12.857zM512 242.286v36.572q0 7.428-5.428 12.857t-12.857 5.428h-36.572q-7.428 0-12.857-5.428t-5.428-12.857v-36.572q0-7.428 5.428-12.857t12.857-5.429h36.572q7.428 0 12.857 5.428t5.428 12.857zM512 352v36.572q0 7.428-5.428 12.857t-12.857 5.428h-36.572q-7.428 0-12.857-5.428t-5.428-12.857v-36.572q0-7.428 5.428-12.857t12.857-5.429h36.572q7.428 0 12.857 5.428t5.428 12.857zM548.572 397.714v-384q0-18.857-13.428-32.286t-32.286-13.428h-457.143q-18.857 0-32.285 13.428t-13.428 32.286v384q0 18.857 13.428 32.286t32.285 13.428h457.143q18.857 0 32.286-13.428t13.428-32.286z" horiz-adv-x="549" />
<glyph unicode="&#xe61f;" d="M329.143 242.286q0 52.857-37.572 90.428t-90.428 37.572-90.428-37.572-37.572-90.428 37.572-90.428 90.428-37.572 90.428 37.572 37.572 90.428zM475.428 4.572q0-14.857-10.857-25.714t-25.714-10.857q-15.428 0-25.714 10.857l-98 97.714q-51.143-35.428-114-35.428-40.857 0-78.143 15.857t-64.285 42.857-42.857 64.286-15.857 78.143 15.857 78.143 42.857 64.286 64.285 42.857 78.143 15.857 78.143-15.857 64.286-42.857 42.857-64.286 15.857-78.143q0-62.857-35.428-114l98-98q10.572-10.572 10.572-25.714z" horiz-adv-x="476" />
<glyph unicode="&#xe620;" d="M182.857 315.428q0-22.857-16-38.857t-38.857-16-38.857 16-16 38.857 16 38.857 38.857 16 38.857-16 16-38.857zM475.428 205.714v-128h-402.286v54.857l91.428 91.428 45.714-45.714 146.286 146.286zM502.857 406.857h-457.143q-3.715 0-6.428-2.714t-2.715-6.428v-347.428q0-3.714 2.715-6.428t6.428-2.714h457.143q3.714 0 6.428 2.714t2.714 6.428v347.428q0 3.714-2.714 6.428t-6.428 2.714zM548.572 397.714v-347.428q0-18.857-13.428-32.286t-32.286-13.428h-457.143q-18.857 0-32.285 13.428t-13.428 32.286v347.428q0 18.857 13.428 32.286t32.285 13.428h457.143q18.857 0 32.286-13.428t13.428-32.286z" horiz-adv-x="549" />
<glyph unicode="&#xe621;" d="M103.715 41.143l26 26-67.143 67.143-26-26v-30.572h36.572v-36.572h30.572zM253.143 306.286q0 6.286-6.286 6.286-2.857 0-4.857-2l-154.857-154.857q-2-2-2-4.857 0-6.286 6.285-6.286 2.857 0 4.857 2l154.857 154.857q2 2 2 4.857zM237.714 361.143l118.857-118.857-237.714-237.714h-118.857v118.857zM432.857 333.714q0-15.143-10.572-25.714l-47.428-47.428-118.857 118.857 47.428 47.143q10.286 10.857 25.714 10.857 15.143 0 26-10.857l67.143-66.857q10.572-11.143 10.572-26z" />
<glyph unicode="&#xe622;" d="M292.572 141.714v-18.286q0-4-2.572-6.572t-6.572-2.572h-201.143q-4 0-6.572 2.572t-2.572 6.572v18.286q0 4 2.572 6.572t6.572 2.572h201.143q4 0 6.572-2.572t2.572-6.572zM292.572 214.857v-18.286q0-4-2.572-6.572t-6.572-2.572h-201.143q-4 0-6.572 2.572t-2.572 6.572v18.286q0 4 2.572 6.572t6.572 2.571h201.143q4 0 6.572-2.571t2.572-6.572zM36.572 41.143h292.572v219.429h-118.857q-11.429 0-19.429 8t-8 19.428v118.857h-146.286v-365.714zM219.429 297.143h107.429q-2.857 8.285-6.286 11.714l-89.428 89.429q-3.429 3.428-11.714 6.286v-107.429zM365.714 288v-256q0-11.428-8-19.428t-19.428-8h-310.857q-11.428 0-19.428 8t-8 19.428v384q0 11.428 8 19.428t19.428 8h182.857q11.429 0 25.143-5.714t21.714-13.714l89.143-89.143q8-8 13.714-21.714t5.714-25.143z" horiz-adv-x="366" />
<glyph unicode="&#xe623;" d="M512 224q0-7.428-5.428-12.857l-73.143-73.143q-5.428-5.428-12.857-5.428t-12.857 5.428-5.428 12.857v36.572h-292.572v-36.572q0-7.428-5.428-12.857t-12.857-5.428-12.857 5.428l-73.143 73.143q-5.428 5.428-5.428 12.857t5.428 12.857l73.143 73.143q5.428 5.429 12.857 5.429t12.857-5.428 5.428-12.857v-36.571h292.572v36.572q0 7.428 5.428 12.857t12.857 5.428 12.857-5.428l73.143-73.143q5.428-5.429 5.428-12.857z" />
<glyph unicode="&#xe624;" d="M215.714 178.286q0-3.714-2.857-6.572l-94.857-94.857 41.143-41.143q5.429-5.428 5.429-12.857t-5.428-12.857-12.857-5.428h-128q-7.428 0-12.857 5.428t-5.428 12.857v128q0 7.428 5.428 12.857t12.857 5.428 12.857-5.428l41.143-41.143 94.857 94.857q2.857 2.857 6.572 2.857t6.572-2.857l32.572-32.572q2.857-2.857 2.857-6.572zM438.857 425.143v-128q0-7.429-5.428-12.857t-12.857-5.428-12.857 5.428l-41.143 41.143-94.857-94.857q-2.857-2.857-6.572-2.857t-6.572 2.857l-32.572 32.572q-2.857 2.857-2.857 6.572t2.857 6.572l94.857 94.857-41.143 41.143q-5.428 5.428-5.428 12.857t5.428 12.857 12.857 5.428h128q7.428 0 12.857-5.428t5.428-12.857z" />
<glyph unicode="&#xe625;" d="M201.143 121.143v-68.572q0-4.572-3.429-8t-8-3.428h-68.572q-4.572 0-8 3.428t-3.428 8v68.572q0 4.572 3.428 8t8 3.428h68.572q4.572 0 8-3.428t3.429-8zM291.428 292.572q0-15.429-4.428-28.857t-10-21.857-15.714-17-16.428-12.429-17.428-10.143q-11.714-6.572-19.572-18.572t-7.857-19.143q0-4.857-3.429-9.286t-8-4.428h-68.572q-4.285 0-7.285 5.286t-3 10.714v12.857q0 23.714 18.571 44.714t40.857 31q16.857 7.714 24 16t7.143 21.714q0 12-13.286 21.143t-30.714 9.143q-18.572 0-30.857-8.286-10-7.143-30.572-32.857-3.715-4.572-8.857-4.572-3.428 0-7.143 2.286l-46.857 35.714q-3.715 2.857-4.428 7.143t1.572 8q45.715 76 132.571 76 22.857 0 46-8.857t41.714-23.714 30.286-36.428 11.714-45.286z" horiz-adv-x="293" />
<glyph unicode="&#xe626;" d="M438.857 96v-36.572q0-7.428-5.428-12.857t-12.857-5.428h-402.286q-7.428 0-12.857 5.428t-5.428 12.857v36.572q0 7.428 5.428 12.857t12.857 5.428h402.286q7.428 0 12.857-5.428t5.428-12.857zM438.857 242.286v-36.572q0-7.428-5.428-12.857t-12.857-5.428h-402.286q-7.428 0-12.857 5.428t-5.428 12.857v36.572q0 7.428 5.428 12.857t12.857 5.429h402.286q7.428 0 12.857-5.428t5.428-12.857zM438.857 388.572v-36.572q0-7.428-5.428-12.857t-12.857-5.429h-402.286q-7.428 0-12.857 5.428t-5.428 12.857v36.571q0 7.429 5.428 12.857t12.857 5.428h402.286q7.428 0 12.857-5.428t5.428-12.857z" horiz-adv-x="439" />
<glyph unicode="&#xe627;" d="M137.143 233.143v128q0 4-2.571 6.571t-6.572 2.572-6.572-2.572-2.572-6.571v-128q0-4 2.572-6.571t6.572-2.571 6.572 2.571 2.571 6.572zM329.143 132.572q0-7.428-5.428-12.857t-12.857-5.428h-122.572l-14.572-138q-0.571-3.428-3-5.857t-5.857-2.428h-0.286q-7.714 0-9.143 7.714l-21.714 138.572h-115.428q-7.428 0-12.857 5.428t-5.428 12.857q0 35.143 22.428 63.286t50.715 28.143v146.286q-14.857 0-25.715 10.857t-10.857 25.714 10.857 25.714 25.715 10.857h182.857q14.857 0 25.714-10.857t10.857-25.714-10.857-25.714-25.714-10.857v-146.286q28.286 0 50.714-28.143t22.428-63.286z" horiz-adv-x="329" />
<glyph unicode="&#xe628;" d="M475.428 315.428v-73.143q0-7.428-5.428-12.857t-12.857-5.429h-18.286q-7.428 0-12.857 5.428t-5.428 12.857v73.143q0 30.286-21.428 51.714t-51.714 21.429-51.714-21.429-21.428-51.714v-54.857h27.428q11.428 0 19.428-8t8-19.429v-164.571q0-11.428-8-19.428t-19.428-8h-274.286q-11.428 0-19.428 8t-8 19.428v164.571q0 11.429 8 19.429t19.428 8h192v54.857q0 52.857 37.572 90.429t90.428 37.571 90.428-37.571 37.572-90.429z" horiz-adv-x="476" />
<glyph unicode="&#xe629;" d="M91.428 260.572h146.286v54.857q0 30.286-21.428 51.714t-51.714 21.429-51.715-21.429-21.428-51.714v-54.857zM329.143 233.143v-164.571q0-11.428-8-19.428t-19.428-8h-274.286q-11.428 0-19.428 8t-8 19.428v164.571q0 11.429 8 19.429t19.428 8h9.143v54.857q0 52.572 37.715 90.286t90.285 37.714 90.285-37.714 37.714-90.286v-54.857h9.143q11.428 0 19.428-8t8-19.428z" horiz-adv-x="329" />
<glyph unicode="&#xe62a;" d="M109.715 77.714q0-22.857-16-38.857t-38.857-16-38.857 16-16 38.857 16 38.857 38.857 16 38.857-16 16-38.857zM109.715 224q0-22.857-16-38.857t-38.857-16-38.857 16-16 38.857 16 38.857 38.857 16 38.857-16 16-38.857zM512 105.143v-54.857q0-3.714-2.714-6.428t-6.428-2.714h-347.428q-3.714 0-6.428 2.714t-2.714 6.428v54.857q0 3.714 2.714 6.428t6.428 2.714h347.428q3.714 0 6.428-2.714t2.714-6.428zM109.715 370.286q0-22.857-16-38.857t-38.857-16-38.857 16-16 38.857 16 38.857 38.857 16 38.857-16 16-38.857zM512 251.429v-54.857q0-3.714-2.714-6.428t-6.428-2.714h-347.428q-3.714 0-6.428 2.714t-2.714 6.428v54.857q0 3.714 2.714 6.429t6.428 2.714h347.428q3.714 0 6.428-2.714t2.714-6.428zM512 397.714v-54.857q0-3.714-2.714-6.428t-6.428-2.714h-347.428q-3.714 0-6.428 2.714t-2.714 6.428v54.857q0 3.714 2.714 6.428t6.428 2.714h347.428q3.714 0 6.428-2.714t2.714-6.428z" />
<glyph unicode="&#xe62b;" d="M108.857 17.143q0-22.857-15.572-36t-38.715-13.143q-30.285 0-49.143 18.857l16.285 25.143q14-12.857 30.285-12.857 8.285 0 14.428 4.143t6.143 12.143q0 18.286-30 16l-7.428 16q2.285 2.857 9.285 12.428t12.143 15.428 10.572 11v0.286q-4.572 0-13.857-0.286t-13.857-0.286v-15.143h-30.285v43.428h95.143v-25.143l-27.143-32.857q14.572-3.428 23.143-14t8.572-25.143zM109.428 196.286v-45.428h-103.428q-1.715 10.286-1.715 15.428 0 14.572 6.715 26.572t16.143 19.428 18.857 13.572 16.143 12.428 6.715 12.857q0 7.143-4.143 11t-11.285 3.857q-13.143 0-23.143-16.572l-24.285 16.857q6.857 14.572 20.428 22.715t30.143 8.143q20.857 0 35.143-11.857t14.285-32.143q0-14.286-9.715-26.143t-21.428-18.428-21.572-14.428-10.143-15h36.285v17.143h30zM512 105.143v-54.857q0-3.714-2.714-6.428t-6.428-2.714h-347.428q-3.714 0-6.428 2.714t-2.714 6.428v54.857q0 4 2.571 6.572t6.571 2.572h347.428q3.714 0 6.428-2.714t2.714-6.428zM109.715 362v-28.286h-95.715v28.286h30.572q0 11.714 0.143 34.857t0.143 34.572v3.428h-0.572q-2.285-4.857-14.285-15.428l-20.285 21.714 38.857 36.286h30.285v-115.428h30.857zM512 251.429v-54.857q0-3.714-2.714-6.428t-6.428-2.714h-347.428q-3.714 0-6.428 2.714t-2.714 6.428v54.857q0 4 2.571 6.571t6.571 2.572h347.428q3.714 0 6.428-2.715t2.714-6.428zM512 397.714v-54.857q0-3.714-2.714-6.428t-6.428-2.714h-347.428q-3.714 0-6.428 2.714t-2.714 6.428v54.857q0 3.714 2.714 6.428t6.428 2.714h347.428q3.714 0 6.428-2.714t2.714-6.428z" />
<glyph unicode="&#xe62c;" d="M475.428 50.286v219.429q-9.143-10.286-19.714-18.857-76.572-58.857-121.714-96.572-14.572-12.286-23.714-19.143t-24.714-13.857-29.286-7h-0.571q-13.714 0-29.285 7t-24.714 13.857-23.714 19.143q-45.143 37.714-121.715 96.572-10.572 8.572-19.715 18.857v-219.428q0-3.714 2.715-6.428t6.428-2.714h420.572q3.714 0 6.428 2.714t2.714 6.428zM475.428 350.572v7t-0.143 3.714-0.857 3.571-1.572 2.572-2.572 2.143-4 0.714h-420.572q-3.715 0-6.428-2.714t-2.715-6.428q0-48 42-81.143 55.143-43.428 114.571-90.572 1.714-1.428 10-8.428t13.143-10.714 12.714-9 14.429-7.857 12.286-2.572h0.572q5.714 0 12.286 2.572t14.428 7.857 12.714 9 13.143 10.714 10 8.428q59.428 47.143 114.572 90.572 15.428 12.286 28.714 33t13.286 37.572zM512 361.143v-310.857q0-18.857-13.428-32.286t-32.286-13.428h-420.572q-18.857 0-32.285 13.428t-13.428 32.286v310.857q0 18.857 13.428 32.286t32.285 13.428h420.572q18.857 0 32.286-13.428t13.428-32.286z" />
<glyph unicode="&#xe62d;" d="M495.104 133.274l-81.51 54.835h-50.253l87.040-66.765h-90.752c-2.611 0-4.941-1.331-6.144-3.405l-20.889-57.216h-153.19l-20.915 57.216c-1.152 2.074-3.533 3.405-6.144 3.405h-90.727l87.066 66.765h-50.279l-81.485-54.835c-12.134-7.245-19.379-23.962-16.128-37.094l14.361-78.695c3.251-13.159 17.69-23.936 32.026-23.936h417.613c14.387 0 28.8 10.777 32.051 23.936l14.361 78.695c3.302 13.159-3.968 29.849-16.103 37.094zM389.146 297.677h-84.505v131.072h-97.28v-131.072h-84.48l133.12-124.928 133.146 124.928z" />
<glyph unicode="&#xe62e;" d="M282.137 44.8h-205.85v358.4h205.824v-76.8h50.688v76.8c0 28.16-23.014 51.2-51.2 51.2h-204.8c-28.16 0-51.2-23.040-51.2-51.2v-358.4c0-28.16 23.040-51.2 51.2-51.2h204.8c28.185 0 51.2 23.040 51.2 51.2v51.2h-50.663v-51.2zM486.4 211.2l-101.863 99.84v-61.44h-230.4v-76.8h230.4v-61.44l101.863 99.84z" />
<glyph unicode="&#xe62f;" d="M435.2 454.4h-230.4c-28.16 0-50.688-23.040-50.688-51.2v-76.8h50.688v76.8h230.4v-358.4h-230.4v51.2h-50.688v-51.2c0-28.16 22.528-51.2 50.688-51.2h230.4c28.16 0 51.2 23.040 51.2 51.2v358.4c0 28.16-23.040 51.2-51.2 51.2zM256 111.36l102.4 99.84-102.4 99.84v-61.44h-230.4v-76.8h230.4v-61.44z" />
<glyph unicode="&#xe630;" d="M164.125 447.281c-2.476 0-4.673-0.954-6.578-2.86l-133.141-133.14c-1.904-1.905-2.86-4.102-2.86-6.578s0.954-4.658 2.86-6.563l14.282-14.297c1.904-1.905 4.102-2.844 6.578-2.844s4.658 0.939 6.563 2.844l112.297 112.297 112.281-112.297c1.904-1.905 4.086-2.844 6.563-2.844s4.673 0.939 6.578 2.844l14.281 14.297c1.904 1.905 2.86 4.086 2.86 6.563s-0.954 4.673-2.86 6.578l-133.141 133.141c-1.905 1.904-4.086 2.859-6.563 2.859zM307.143 140.714q0-3.714-2.857-6.572l-133.143-133.143q-2.857-2.857-6.571-2.857t-6.572 2.857l-133.143 133.143q-2.857 2.857-2.857 6.572t2.857 6.572l14.285 14.286q2.857 2.857 6.572 2.857t6.572-2.857l112.285-112.286 112.285 112.286q2.857 2.857 6.572 2.857t6.572-2.857l14.286-14.286q2.857-2.857 2.857-6.572z" horiz-adv-x="329" />
<glyph unicode="&#xe631;" d="M475.428 205.714q-43.428 67.428-108.857 100.857 17.428-29.715 17.428-64.286 0-52.857-37.572-90.428t-90.428-37.572-90.428 37.572-37.572 90.428q0 34.572 17.428 64.286-65.428-33.428-108.857-100.857 38-58.572 95.285-93.286t124.143-34.714 124.143 34.714 95.286 93.286zM269.714 315.428q0 5.715-4 9.715t-9.714 4q-35.714 0-61.286-25.572t-25.572-61.286q0-5.714 4-9.714t9.714-4 9.714 4 4 9.714q0 24.572 17.428 42t42 17.428q5.714 0 9.714 4t4 9.714zM512 205.714q0-9.714-5.714-19.714-40-65.714-107.572-105.286t-142.714-39.572-142.714 39.714-107.572 105.143q-5.715 10-5.715 19.714t5.715 19.714q40 65.428 107.572 105.143t142.714 39.714 142.714-39.714 107.572-105.143q5.714-10 5.714-19.714z" />
<glyph unicode="&#xe632;" d="M402.286 214.857v-91.428q0-34-24.143-58.143t-58.143-24.143h-237.714q-34 0-58.143 24.143t-24.143 58.143v237.714q0 34 24.143 58.143t58.143 24.143h201.143q4 0 6.572-2.572t2.572-6.572v-18.285q0-4-2.572-6.572t-6.572-2.572h-201.143q-18.857 0-32.285-13.428t-13.428-32.286v-237.714q0-18.857 13.428-32.286t32.285-13.428h237.715q18.857 0 32.286 13.428t13.428 32.286v91.428q0 4 2.572 6.572t6.572 2.571h18.286q4 0 6.572-2.571t2.572-6.572zM512 461.714v-146.286q0-7.428-5.428-12.857t-12.857-5.429-12.857 5.428l-50.286 50.286-186.286-186.286q-2.857-2.857-6.572-2.857t-6.572 2.857l-32.572 32.572q-2.857 2.857-2.857 6.572t2.857 6.572l186.286 186.286-50.286 50.286q-5.428 5.428-5.428 12.857t5.428 12.857 12.857 5.428h146.286q7.428 0 12.857-5.428t5.428-12.857z" />
<glyph unicode="&#xe633;" d="M256 445.37c-122.428 0-221.636-99.225-221.636-221.636s99.208-221.636 221.636-221.636c122.394 0 221.635 99.225 221.635 221.635s-99.225 221.635-221.636 221.635zM254.21 44.26c-98.867 0-179.013 80.147-179.013 179.014s80.147 179.014 179.013 179.014c98.85 0 179.013-80.147 179.013-179.014s-80.164-179.014-179.013-179.014zM305.954 212.976h-50.805v85.79c0 9.309-7.553 16.878-16.862 16.878-9.326 0-16.879-7.553-16.879-16.878v-102.651c0-9.326 7.553-16.861 16.879-16.861h67.667c9.326 0 16.878 7.536 16.878 16.861 0 9.309-7.553 16.861-16.878 16.861z" />
<glyph unicode="&#xe634;" d="M256 385.422h53.813v-80.703h-53.813v80.703zM417.438 439.234l-349.766 0.001c-7.287 0-13.597-2.66-18.922-7.985s-7.984-11.635-7.984-18.922v-376.656c0-7.286 2.66-13.596 7.984-18.922 4.794-4.795 10.389-7.42 16.774-7.897v-0.087l380.952 0.087c6.385 0.478 11.98 3.103 16.774 7.897 5.325 5.325 7.985 11.635 7.985 18.922v349.765l-53.796 53.797zM94.562 412.328v0h269.063v-107.609c-0-7.567-2.675-13.94-8-19.125s-11.62-7.781-18.906-7.781h-215.25c-7.567 0-13.941 2.596-19.125 7.781s-7.781 11.558-7.781 19.125v107.609zM94.579 50.75v146.344c0 7.286 2.581 13.596 7.766 18.922 5.184 5.325 11.558 7.984 19.125 7.984h269.063c7.286 0 13.582-2.66 18.906-7.984s8-11.635 8-18.922v-146.344h-322.86zM389.251 176.688c0-3.59-2.91-6.5-6.5-6.5h-254.782c-3.59 0-6.5 2.91-6.5 6.5v13.906c0 3.59 2.91 6.5 6.5 6.5h254.782c3.59 0 6.5-2.91 6.5-6.5v-13.906zM389.251 95.969c0-3.59-2.91-6.5-6.5-6.5h-254.782c-3.59 0-6.5 2.91-6.5 6.5v13.906c0 3.59 2.91 6.5 6.5 6.5h254.782c3.59 0 6.5-2.91 6.5-6.5v-13.906z" />
<glyph unicode="&#xe635;" d="M236.268 311.457c-1.981-1.98-2.969-4.511-2.969-7.591v-109.414c0-3.079 0.989-5.61 2.969-7.591 1.98-1.979 4.511-2.97 7.59-2.97h24.282c3.080 0 5.611 0.99 7.591 2.97 1.979 1.981 2.97 4.51 2.97 7.591v109.414c0 3.080-0.99 5.611-2.97 7.591s-4.51 2.97-7.591 2.97h-24.282c-3.080-0-5.611-0.99-7.59-2.97zM236.268 154.204c-1.981-1.98-2.969-4.51-2.969-7.591v-27.356c0-3.078 0.989-5.61 2.969-7.591 1.98-1.979 4.511-2.969 7.59-2.969h24.282c3.080 0 5.611 0.99 7.591 2.969 1.979 1.981 2.97 4.512 2.97 7.591v27.356c0 3.079-0.99 5.611-2.97 7.591s-4.51 2.971-7.591 2.971h-24.282c-3.080 0-5.611-0.99-7.59-2.971zM453.147 23.858c-0 0 0 0 0 0l-392.69 0.007c-0.17-0.004-0.339-0.007-0.508-0.007-30.38 0-55.094 24.716-55.094 55.094 0 9.812 2.616 19.423 7.573 27.86 0.16 0.295 0.328 0.586 0.505 0.874l196.127 319.608c0.201 0.327 0.41 0.646 0.628 0.957 10.203 15.93 27.46 25.404 46.396 25.404 18.939 0 36.2-9.476 46.401-25.412 0.209-0.299 0.411-0.605 0.603-0.918l195.795-317.688c6.125-9.106 9.358-19.699 9.358-30.685 0-30.297-24.584-54.962-54.851-55.094-0.082-0.002-0.163-0.002-0.245-0.002zM60.2 61.365l392.75-0.007c0.066 0 0.132 0.001 0.197 0.001 9.702 0 17.594 7.893 17.594 17.594 0 3.573-1.077 7.017-3.114 9.96-0.298 0.431-0.577 0.872-0.836 1.322l-195.138 316.623c-0.188 0.273-0.37 0.552-0.544 0.837-3.245 5.298-8.863 8.462-15.026 8.462s-11.78-3.163-15.026-8.462c-0.17-0.277-0.346-0.549-0.53-0.816l-195.22-318.129c-0.126-0.226-0.255-0.449-0.391-0.671-1.677-2.742-2.563-5.897-2.563-9.125 0-9.635 7.784-17.486 17.394-17.594 0.15 0.005 0.301 0.005 0.451 0.005z" />
<glyph unicode="&#xe636;" d="M255.667 4.594c-121.212 0-219.475 98.221-219.475 219.406s98.262 219.406 219.475 219.406c121.226 0 219.488-98.221 219.488-219.406s-98.262-219.406-219.488-219.406zM255.776 403.706c-99.057 0-179.363-80.36-179.363-179.487 0-99.113 80.305-179.488 179.363-179.488 99.084 0 179.375 80.374 179.375 179.488 0 99.126-80.305 179.487-179.375 179.487v0zM337.948 239.423c-1.98 1.981-4.51 2.97-7.591 2.97h-54.791v54.792c0 3.080-0.991 5.611-2.971 7.59s-4.51 2.97-7.591 2.97h-18.663c-3.081 0-5.611-0.99-7.59-2.97s-2.97-4.51-2.97-7.591v-54.791h-54.791c-3.079 0-5.61-0.989-7.591-2.97-1.98-1.98-2.97-4.511-2.97-7.59v-18.664c0-3.080 0.99-5.611 2.97-7.591 1.981-1.979 4.511-2.971 7.591-2.971h54.791v-54.791c0-3.079 0.989-5.61 2.97-7.591 1.98-1.979 4.511-2.97 7.59-2.97h18.663c3.080 0 5.611 0.99 7.591 2.97 1.979 1.981 2.971 4.51 2.971 7.591v54.791h54.792c3.080 0 5.611 0.991 7.591 2.971s2.97 4.51 2.97 7.591v18.663c0 3.081-0.99 5.611-2.971 7.59z" />
<glyph unicode="&#xe637;" d="M255.667 4.594c-121.212 0-219.475 98.221-219.475 219.406s98.262 219.406 219.475 219.406c121.226 0 219.488-98.221 219.488-219.406s-98.262-219.406-219.488-219.406zM255.776 403.706c-99.057 0-179.363-80.36-179.363-179.487 0-99.113 80.305-179.488 179.363-179.488 99.084 0 179.375 80.374 179.375 179.488 0 99.126-80.305 179.487-179.375 179.487v0zM332.143 176.702l-47.647 47.298 47.648 47.298c2.186 2.17 3.283 4.656 3.294 7.456s-1.069 5.293-3.24 7.479l-13.234 13.332c-2.17 2.186-4.656 3.285-7.455 3.295s-5.293-1.071-7.479-3.24l-47.856-47.505-47.856 47.505c-2.186 2.17-4.678 3.251-7.48 3.24s-5.286-1.109-7.456-3.295l-13.233-13.332c-2.171-2.187-3.25-4.679-3.239-7.479s1.108-5.286 3.294-7.456l47.648-47.298-47.647-47.298c-2.185-2.169-3.285-4.655-3.295-7.455s1.070-5.294 3.239-7.479l13.234-13.332c2.169-2.185 4.656-3.283 7.456-3.295 2.801-0.010 5.294 1.070 7.48 3.24l47.855 47.505 47.855-47.505c2.185-2.169 4.68-3.248 7.481-3.24 2.8 0.011 5.286 1.11 7.455 3.295l13.235 13.332c2.171 2.185 3.249 4.679 3.24 7.479s-1.11 5.286-3.294 7.455z" />
<glyph unicode="&#xe638;" d="M255.667 4.594c-121.212 0-219.475 98.221-219.475 219.406s98.262 219.406 219.475 219.406c121.226 0 219.488-98.221 219.488-219.406s-98.262-219.406-219.488-219.406zM255.776 403.706c-99.058 0-179.363-80.36-179.363-179.487 0-99.113 80.305-179.487 179.363-179.487 99.084 0 179.375 80.374 179.375 179.487 0 99.126-80.305 179.487-179.375 179.487v0zM367.974 274.635l-17.083 17.083c-3.154 3.154-8.252 3.154-11.389 0l-102.531-102.515-48.743 49.135c-3.171 3.155-8.252 3.155-11.423 0l-17.084-17.1c-3.154-3.154-3.154-8.252 0-11.389l71.486-71.998c3.154-3.137 8.252-3.137 11.389 0l125.377 125.377c3.171 3.154 3.171 8.252 0 11.406v0z" />
<glyph unicode="&#xe639;" d="M255.667 4.594c-121.212 0-219.475 98.221-219.475 219.406s98.262 219.406 219.475 219.406c121.226 0 219.488-98.221 219.488-219.406s-98.262-219.406-219.488-219.406zM255.776 403.706c-99.057 0-179.363-80.36-179.363-179.487 0-99.113 80.305-179.488 179.363-179.488 99.084 0 179.375 80.374 179.375 179.488 0 99.126-80.305 179.487-179.375 179.487v0zM338.275 239.506c-1.98 1.981-4.51 2.97-7.591 2.97h-149.368c-3.079 0-5.61-0.989-7.591-2.97-1.98-1.98-2.97-4.511-2.97-7.59v-17.83c0-3.080 0.99-5.611 2.97-7.591 1.981-1.979 4.511-2.971 7.591-2.971h149.368c3.080 0 5.611 0.991 7.591 2.971s2.97 4.51 2.97 7.591v17.83c0 3.081-0.99 5.611-2.97 7.59z" />
<glyph unicode="&#xe63a;" d="M255.667 4.594c-121.212 0-219.475 98.221-219.475 219.406s98.262 219.406 219.475 219.406c121.226 0 219.488-98.221 219.488-219.406s-98.262-219.406-219.488-219.406zM255.776 403.706c-99.057 0-179.363-80.36-179.363-179.487 0-99.114 80.305-179.488 179.363-179.488 99.084 0 179.375 80.374 179.375 179.488 0 99.126-80.305 179.487-179.375 179.487v0zM276.281 124.221c1.981 1.98 2.969 4.51 2.969 7.591v109.414c0 3.079-0.99 5.61-2.969 7.591-1.979 1.98-4.51 2.97-7.591 2.97h-24.282c-3.081 0-5.611-0.99-7.591-2.97-1.98-1.981-2.97-4.511-2.97-7.591v-109.414c0-3.080 0.99-5.611 2.97-7.591 1.981-1.98 4.511-2.971 7.591-2.971h24.282c3.080 0 5.611 0.99 7.591 2.971zM276.281 281.474c1.981 1.98 2.969 4.511 2.969 7.591v27.355c0 3.079-0.99 5.61-2.969 7.591-1.979 1.98-4.51 2.969-7.591 2.969h-24.282c-3.081 0-5.611-0.99-7.591-2.969-1.98-1.981-2.97-4.511-2.97-7.591v-27.356c0-3.079 0.99-5.611 2.97-7.59 1.981-1.981 4.511-2.97 7.591-2.97h24.282c3.080 0 5.611 0.99 7.591 2.97z" />
<glyph unicode="&#xe63b;" d="M255.667 4.594c-121.212 0-219.475 98.221-219.475 219.406s98.262 219.406 219.475 219.406c121.226 0 219.488-98.221 219.488-219.406s-98.262-219.406-219.488-219.406zM255.776 403.706c-99.057 0-179.363-80.36-179.363-179.487 0-99.114 80.305-179.488 179.363-179.488 99.084 0 179.375 80.374 179.375 179.488 0 99.126-80.305 179.487-179.375 179.487v0zM236.816 324.010c-1.981-1.98-2.969-4.511-2.969-7.591v-109.414c0-3.079 0.989-5.61 2.969-7.591 1.98-1.979 4.511-2.97 7.59-2.97h24.282c3.080 0 5.611 0.99 7.591 2.97 1.979 1.981 2.97 4.51 2.97 7.591v109.414c0 3.080-0.99 5.611-2.97 7.591s-4.51 2.971-7.591 2.971h-24.282c-3.081-0-5.611-0.99-7.59-2.971zM236.816 166.757c-1.981-1.98-2.969-4.51-2.969-7.591v-27.355c0-3.079 0.989-5.61 2.969-7.591 1.98-1.979 4.511-2.969 7.59-2.969h24.282c3.080 0 5.611 0.99 7.591 2.969 1.979 1.981 2.97 4.512 2.97 7.591v27.356c0 3.079-0.99 5.611-2.97 7.591s-4.51 2.971-7.591 2.971h-24.282c-3.081-0-5.611-0.99-7.59-2.971z" />
<glyph unicode="&#xe63c;" d="M243.3 341.675c1.269 14.436-3.076 37.983-19.497 56.838-11.363 13.042-32.933 28.59-71.166 28.59-38.278 0-59.86-15.584-71.225-28.659-16.41-18.881-20.719-42.396-19.424-56.796 0.888-9.911 2.651-21.661 3.665-28.026-3.812-5.939-5.744-13.276-5.744-21.816 0-0.41 0.014-0.818 0.042-1.214 1.791-24.986 9.739-32.98 18.155-37.699 4.29-21.875 11.875-30.886 16.916-36.873 1.093-1.298 2.331-2.769 2.524-3.301 0.322-0.889 0.725-1.76 1.198-2.589 0.708-1.239 17.749-30.339 53.892-30.339 36.174 0 53.593 30.116 54.316 31.399 0.291 0.514 0.554 1.042 0.78 1.569 0.25 0.575 1.405 1.947 2.523 3.275 5.030 5.975 12.614 14.986 16.891 36.854 8.416 4.72 16.366 12.712 18.174 37.681 0.030 0.406 0.046 0.823 0.046 1.238 0 10.436-3.066 17.589-5.729 21.831 1.214 7.62 2.812 18.541 3.663 28.038zM179.274 227.429c-1.691-2.594-10.504-14.782-26.638-14.782-15.696 0-24.388 11.156-26.114 13.617-2.172 4.988-5.013 8.358-7.521 11.333-3.829 4.549-7.446 8.847-10.064 23.61-2.454 13.89-10.98 18.185-15.076 20.248l-0.049 0.024c-0.075 0.038-0.162 0.082-0.252 0.127-0.463 1.199-1.336 4.216-1.847 10.739 0.037 1.416 0.213 2.306 0.356 2.807 4.877 3.711 7.317 10.031 6.228 16.199-0.138 0.782-3.391 19.315-4.645 33.328-0.525 5.854 1.188 20.036 11.42 31.81 10.242 11.784 26.245 17.758 47.562 17.758 21.297 0 37.287-5.96 47.527-17.714 10.252-11.772 11.985-25.988 11.469-31.858-1.278-14.249-4.612-33.135-4.645-33.325-1.091-6.159 1.344-12.474 6.212-16.188 0.144-0.498 0.321-1.387 0.358-2.813-0.517-6.519-1.393-9.54-1.857-10.742-0.097-0.049-0.191-0.096-0.272-0.137l-0.046-0.023c-4.095-2.062-12.617-6.353-15.072-20.243-2.607-14.77-6.225-19.067-10.054-23.615-2.285-2.71-4.873-5.782-6.981-10.163zM427.858 304.552c0.962 6.255 2.226 15.198 2.902 22.991 1.029 12.077-2.491 31.781-15.798 47.563-9.232 10.945-26.748 23.991-57.769 23.991-31.055 0-48.582-13.079-57.815-24.051-13.298-15.799-16.789-35.478-15.74-47.527 0.673-7.769 1.937-16.714 2.901-22.977-3.033-4.99-4.57-11.111-4.57-18.198 0-0.344 0.011-0.688 0.034-1.052 1.446-20.816 7.838-27.593 14.62-31.623 3.484-18.034 9.587-25.519 13.637-30.487 0.698-0.857 1.752-2.151 1.895-2.5 0.269-0.772 0.611-1.533 1.014-2.262 0.578-1.044 14.495-25.567 44.020-25.567 29.685 0 43.781 25.382 44.365 26.459 0.24 0.441 0.461 0.899 0.654 1.359 0.156 0.373 1.205 1.659 1.899 2.51 4.051 4.969 10.156 12.456 13.63 30.484 6.784 4.028 13.178 10.802 14.638 31.623 0.025 0.361 0.038 0.716 0.038 1.056 0.001 8.645-2.433 14.63-4.558 18.207zM377.675 233.431c-1.327-2.088-8.145-11.758-20.483-11.758-11.718 0-18.255 8.156-20.060 10.796-1.784 4.194-4.18 7.131-6.108 9.496-3 3.682-5.835 7.16-7.899 19.182-2.014 11.772-9.263 15.637-12.454 17.298-0.344 1.046-0.96 3.493-1.332 8.363 0.024 0.895 0.116 1.504 0.198 1.878 4.041 3.3 5.978 8.615 5.062 13.966-0.026 0.151-2.7 15.844-3.712 27.495-0.411 4.739 0.933 16.226 8.969 25.775 8.015 9.523 20.577 14.352 37.337 14.352 16.743 0 29.296-4.817 37.308-14.317 8.049-9.545 9.411-21.060 9.007-25.813-1.009-11.594-3.605-26.869-3.716-27.512-0.897-5.229 1.081-10.656 5.050-13.931 0.082-0.375 0.176-0.986 0.201-1.887-0.375-4.865-0.997-7.32-1.344-8.369-3.179-1.654-10.444-5.508-12.461-17.296-2.058-12.033-4.894-15.512-7.897-19.196-1.852-2.27-3.949-4.843-5.668-8.521zM354.663 170.108c-25.007 0-30.798 10.991-30.798 10.991-0.69-17.428-6.558-25.988-21.113-36.229 82.99-41.545 94.131-50.024 94.131-87.163v-76.15h115.39c0 0-1 96.999-6.942 107.039-8.837 14.983-29.353 25.255-67.466 41.187-36.113 15.098-48.889 24.971-50.062 50.832 0 0.001-8.134-10.507-33.14-10.507zM153.97 154.604c-33.814 0-44.579 18.86-44.579 18.86-3.451-30.116-21.281-39.305-66.206-58.076-15.445-6.454-43.185-16.471-43.185-40.495v-93.337h355.875c0 0 0 55.197 0 69.95 0 21.951-43.209 42.621-94.004 63.88v0c-44.724 18.666-62.568 27.78-66.149 57.581 0.001 0.002-7.938-18.364-41.752-18.364z" />
<glyph unicode="&#xe63d;" d="M307.492 175.926c1.449-38.538 22.425-52.045 83.295-74.221h-0.016c63.385-23.098 104.569-46.647 104.569-62.698s0-53.949 0-53.949h-481.834c0 0 0 37.9 0 53.949 0 16.083 41.166 39.632 104.567 62.698 60.719 22.106 81.739 35.572 83.283 73.932 0 0 16.207-21.886 53.066-21.886 36.86-0.002 53.071 22.175 53.071 22.175zM356.335 328.8c1.505 8.959 3.454 21.619 4.486 32.614 1.486 16.159-3.612 42.522-22.873 63.637-13.305 14.587-38.596 31.975-83.526 31.975-44.98 0-70.286-17.43-83.594-32.052-19.247-21.145-24.303-47.47-22.786-63.589 1.077-11.488 3.216-25.045 4.486-32.611-4.626-6.59-6.97-14.843-6.97-24.546 0-0.416 0.016-0.841 0.047-1.263 1.988-26.457 10.025-36.123 21.536-42.032 5.010-25.182 14.013-35.394 19.998-42.182 1.625-1.841 3.028-3.432 3.384-4.369 0.351-0.921 0.786-1.817 1.293-2.663 0.823-1.374 20.631-33.661 62.604-33.661 42.103 0 62.274 33.452 63.111 34.874 0.305 0.516 0.586 1.057 0.837 1.608 0.385 0.849 1.511 2.156 3.32 4.207 5.983 6.786 14.988 16.998 19.983 42.179 11.515 5.903 19.558 15.565 21.564 42.023 0.033 0.426 0.050 0.856 0.050 1.279 0 11.818-3.668 19.8-6.95 24.574zM288.27 229.718c-2.188-3.24-13.264-17.952-33.848-17.952-20.069 0-30.972 13.495-33.228 16.624-2.495 5.542-5.828 9.321-8.773 12.659-4.554 5.162-9.262 10.5-12.491 27.88-2.765 14.945-12.328 19.548-16.925 21.761-0.269 0.13-0.738 0.356-1.069 0.521-0.474 0.936-1.921 4.454-2.664 13.592 0.058 2.476 0.488 3.823 0.737 4.402 5.523 3.712 8.399 10.498 7.179 17.079-0.040 0.213-4.058 21.989-5.584 38.257-0.655 6.957 1.46 23.797 14.154 37.742 12.703 13.957 32.441 21.033 58.665 21.033 26.2 0 45.923-7.059 58.62-20.982 12.714-13.939 14.856-30.822 14.212-37.798-1.5-15.979-5.416-37.349-5.584-38.261-1.219-6.561 1.648-13.342 7.156-17.055 0.257-0.587 0.683-1.921 0.741-4.413-0.75-9.149-2.2-12.659-2.676-13.594-0.328-0.166-0.801-0.393-1.072-0.522-4.599-2.21-14.169-6.809-16.937-21.762-3.213-17.378-7.923-22.719-12.482-27.89-2.679-3.038-5.712-6.478-8.132-11.319z" />
<glyph unicode="&#xe63e;" d="M463.945 56.228c-15.573 9.215-37.401 19.233-63.568 29.197h0.248l-10.647 3.88c-28.385 10.342-48.543 18.909-61.305 29.647-11.959 10.061-17.355 22.151-18.043 40.424l-0.216 5.752-3.397-4.647c-0.151-0.207-15.496-20.656-49.777-20.656-34.17 0-49.632 20.183-49.781 20.385l-3.377 4.56-0.228-5.671c-0.732-18.18-6.151-30.218-18.122-40.247-12.762-10.693-32.883-19.234-61.213-29.548-30.805-11.207-56.389-22.637-73.99-33.052-18.969-11.226-28.588-21.166-28.588-29.543v-54.244h470.6v54.243c0 8.36-9.621 18.291-28.595 29.519zM51.388 1.913v19.091c5.239 4.748 24.673 19.332 83.204 40.627 39.651 14.437 71.356 27.681 87.399 54.587 10.911-3.879 22.761-5.844 35.25-5.844 12.497 0.003 24.346 1.987 35.246 5.899 16.011-26.89 47.507-40.081 86.856-54.435 0.175-0.067 0.351-0.134 0.536-0.202 58.51-21.323 77.964-35.906 83.212-40.652v-19.069l-411.702-0.001zM356.69 338.793c0.597 6.488 0.051 14.743-2.197 23.613l0.010 2.532 85.237 32.667-181.010 78.062-182.167-78.061 33.511-12.521v-79.178h-3.911c-2.817 0-5.1-2.671-5.1-5.966v-60.248c0-3.294 2.284-5.964 5.1-5.964h28.047c2.817 0 5.1 2.669 5.1 5.964v60.248c0 3.296-2.283 5.966-5.1 5.966h-4.136v71.707l29.355-10.968 0.077-5.377c-2.011-8.452-2.48-16.29-1.894-22.499 1.005-10.699 2.957-23.183 4.285-31.065-3.814-5.394-6.626-13.029-6.626-22.987 0-0.375 0.014-0.75 0.042-1.124 0.929-12.364 3.214-21.133 7.19-27.596 4.267-6.935 9.71-9.918 13.045-11.552 4.665-23.85 13.123-33.443 18.754-39.828 1.899-2.154 2.991-3.419 3.365-4.404 0.314-0.823 0.698-1.616 1.151-2.374 0.767-1.279 19.224-31.336 58.325-31.336 39.163 0 58.017 31.149 58.8 32.476 0.274 0.464 0.524 0.943 0.747 1.434 0.448 0.986 1.698 2.404 3.281 4.198 5.632 6.385 14.092 15.976 18.741 39.828 3.337 1.631 8.781 4.611 13.050 11.541 3.982 6.463 6.274 15.233 7.212 27.601 0.029 0.377 0.043 0.756 0.043 1.135 0 9.944-2.808 17.574-6.615 22.969 1.329 7.884 3.284 20.384 4.291 31.108zM326.237 271.751c-0.307-0.17-0.861-0.436-1.285-0.64-4.207-2.021-12.961-6.228-15.49-19.889-3.082-16.661-7.612-21.798-11.993-26.765-2.516-2.854-5.344-6.061-7.575-10.546-1.918-2.848-12.706-17.406-32.75-17.406-19.395 0-29.825 12.866-32.175 16.158-2.315 5.159-5.53 8.807-8.166 11.796-4.383 4.97-8.915 10.11-12.007 26.762-2.526 13.656-11.274 17.865-15.477 19.888-0.424 0.204-0.976 0.469-1.282 0.639-0.397 0.67-1.984 3.889-2.76 13.481 0.060 2.854 0.613 4.269 0.886 4.801 5.045 3.259 7.724 9.291 6.602 15.334-0.030 0.156-2.208 11.946-3.895 24.376 29.852-8.971 79.856-17.514 136.499-0.454-1.678-12.251-3.805-23.769-3.832-23.922-1.119-6.031 1.548-12.054 6.579-15.318 0.275-0.529 0.833-1.945 0.894-4.812-0.784-9.598-2.375-12.815-2.771-13.482z" />
<glyph unicode="&#xe63f;" d="M381 7.997l-0.007-27.212h130.552l-0.012 1.262c-0.041 3.94-1.063 96.6-7.053 106.722-8.803 14.923-27.929 24.815-67.47 41.344-16.654 6.962-29.389 13.188-37.412 20.938-7.447 7.194-10.869 15.672-11.445 28.351l-0.156 3.348-2.077-2.635c-0.079-0.099-8.108-9.933-31.864-9.933-23.579 0.001-29.371 10.134-29.423 10.228l-2.171 4.12-0.184-4.654c-0.408-10.328-5.605-35.413-44.94-45.245l-3.412-0.853 34.524-16.169c8.099 3.64 22.263 16.75 22.84 17.296l0.070 0.072c2.59 2.879 4.95 5.959 7.026 9.166 4.885-0.827 10.154-1.245 15.687-1.245 0.001 0 0 0 0.002 0 5.659 0 11.114 0.424 16.225 1.26 11.668-19.394 33.233-29.622 56.187-39.218 22.929-9.586 45.903-19.659 53.221-28.284 1.615-9.096 3.194-35.815 4.052-68.582l-102.757-0.075zM328.202 84.353c-17.913 11.038-43.236 22.113-65.644 31.491-21.322 8.9-37.231 15.846-47.782 24.225-10.229 8.122-15.322 17.647-17.029 31.847l-0.664 3.501-1.723-3.151c-0.019-0.044-1.986-4.408-7.88-8.712-5.46-3.988-15.507-8.74-32.359-8.74-32.31 0-43.001 17.885-43.103 18.064l-1.893 3.316-0.434-3.793c-1.645-14.363-6.71-23.983-16.935-32.168-10.561-8.454-27.233-15.741-47.93-24.389-0.853-0.356-1.745-0.724-2.668-1.104-8.017-3.306-17.995-7.42-26.206-13.661-9.755-7.416-14.701-16.34-14.701-26.526v-93.767h355.255v70.587c0 10.457-9.258 21.245-28.303 32.981zM28.538 74.553c0 0.45 0 1.817 3.926 4.802 5.376 4.088 13.524 7.448 20.093 10.158 0.965 0.399 1.895 0.783 2.788 1.155 28.479 11.899 53.123 22.193 67.819 41.996 9.637-3.41 20.383-5.139 31.958-5.139 10.737 0 20.685 1.497 29.585 4.45 14.742-19.361 39.13-29.538 67.317-41.303 18.574-7.772 39.722-16.935 55.748-25.957 14.958-8.42 20.007-13.743 21.445-15.572v-41.070h-300.68v66.481zM239.944 340.168c0.536 6.385-0.027 14.628-2.256 23.439l0.017 4.032 62.026 25.435-142.982 63.487-145.055-66.31 23.517-9.011v-69.594c0-0.082 0.011-0.16 0.013-0.24h-2.481c-2.262 0-4.097-2.146-4.097-4.792v-48.398c0-2.647 1.834-4.792 4.097-4.792h22.53c2.262 0 4.096 2.145 4.096 4.792v48.398c0 2.647-1.834 4.792-4.096 4.792h-3.148c0.002 0.081 0.013 0.159 0.013 0.24v63.108l21.829-8.365 0.040-2.913c-2.204-8.776-2.749-16.979-2.204-23.33 0.888-10.397 2.677-22.724 3.716-29.463-3.787-5.595-5.707-12.729-5.707-21.215 0-0.333 0.011-0.659 0.032-0.97 1.579-23.087 7.736-30.966 17.147-36.016 3.91-22.404 11.094-31.345 15.862-37.281 1.735-2.161 2.657-3.341 3.034-4.425 0.244-0.709 0.551-1.402 0.911-2.063 0.643-1.178 16.121-28.887 49.066-28.887 32.965 0 48.811 28.726 49.469 29.947 0.219 0.406 0.419 0.827 0.592 1.248 0.417 1.010 1.343 2.184 2.945 4.178 4.768 5.935 11.952 14.879 15.849 37.276 9.421 5.056 15.573 12.939 17.167 36.007 0.024 0.318 0.035 0.649 0.035 0.984 0 10.391-3.027 17.239-5.689 21.25 1.243 8.056 2.864 19.537 3.713 29.449zM215.4 276.755c-0.040-0.070-0.067-0.126-0.091-0.162-0.12-0.112-0.792-0.466-1.336-0.753-3.726-1.966-10.662-5.627-12.734-17.909-2.673-15.865-6.616-20.778-10.436-25.533-2.109-2.624-4.496-5.594-6.357-9.718-1.791-2.948-11.107-16.728-28.581-16.728-17.106 0-26.271 12.738-28.092 15.562-1.912 4.732-4.539 8-6.862 10.888-3.816 4.754-7.761 9.667-10.445 25.528-2.070 12.281-9.003 15.944-12.727 17.91-0.54 0.285-1.212 0.64-1.32 0.739-0.036 0.049-0.064 0.106-0.102 0.175-0.418 0.744-1.832 3.891-2.508 13.163 0.056 3.281 0.722 4.78 0.992 5.255 4.124 2.825 6.293 8.179 5.407 13.43-0.1 0.596-1.882 11.269-3.287 22.543 25.065-8.17 68.532-16.51 117.837-0.483-1.427-11.374-3.203-21.928-3.229-22.070-0.882-5.229 1.28-10.579 5.391-13.407 0.27-0.471 0.943-1.969 1-5.266-0.684-9.266-2.1-12.418-2.518-13.166zM443.57 291.406h-2.986v47.117l17.43 6.679-106.742 44.333-106.745-42.241 45.617-18.706c-1.081-5.565-1.324-10.71-0.981-14.832 0.619-7.485 1.802-16.148 2.715-22.263-2.772-4.281-4.177-9.714-4.177-16.158 0-0.251 0.008-0.502 0.024-0.755 1.161-17.528 5.69-23.601 12.622-27.489 2.889-16.96 8.173-23.757 11.683-28.273 1.256-1.611 1.923-2.488 2.183-3.262 0.18-0.545 0.412-1.087 0.688-1.607 0.474-0.904 11.884-22.091 36.338-22.091 24.507 0 36.152 21.964 36.634 22.895 0.165 0.317 0.315 0.643 0.447 0.971 0.291 0.726 0.961 1.604 2.12 3.094 3.51 4.514 8.795 11.311 11.675 28.268 6.938 3.889 11.468 9.963 12.638 27.483 0.018 0.254 0.028 0.51 0.028 0.766 0 7.869-2.204 13.092-4.168 16.182 0.764 5.121 2.063 14.386 2.715 22.255 0.318 3.914 0.113 8.746-0.836 13.983l15.552 5.959v-42.311h-2.599c-1.82 0-3.296-1.726-3.296-3.856v-38.941c0-2.13 1.476-3.855 3.296-3.855h18.128c1.82 0 3.296 1.726 3.296 3.855v38.942c-0.002 2.13-1.478 3.856-3.298 3.856zM394.669 265.826c-0.012-0.024-0.024-0.047-0.035-0.065-0.151-0.103-0.586-0.341-0.885-0.503-2.586-1.408-7.968-4.342-9.512-13.802-1.951-11.965-4.824-15.661-7.623-19.26-1.552-1.996-3.311-4.26-4.683-7.398-1.321-2.238-8.074-12.514-20.693-12.514-12.332 0-18.976 9.469-20.329 11.629-1.421 3.614-3.358 6.106-5.072 8.309-2.781 3.576-5.656 7.275-7.613 19.232-1.544 9.459-6.925 12.394-9.51 13.803-0.314 0.173-0.733 0.401-0.882 0.502-0.011 0.020-0.022 0.041-0.035 0.064-0.299 0.552-1.312 2.885-1.805 9.856 0.037 2.307 0.469 3.407 0.659 3.783 3.083 2.221 4.701 6.368 4.036 10.433-0.012 0.076-0.762 4.673-1.579 10.633 34.977-10.905 65.836-5.398 84.325 0.414-0.842-6.167-1.625-10.972-1.639-11.056-0.661-4.046 0.95-8.189 4.022-10.412 0.191-0.373 0.627-1.471 0.666-3.79-0.498-6.971-1.513-9.306-1.814-9.858z" />
<glyph unicode="&#xe640;" d="M384.238 365.129c-1.367 1.368-3.115 2.050-5.24 2.050h-115.877c-2.126 0-3.873-0.683-5.24-2.050s-2.051-3.114-2.051-5.24v-18.228c0-2.127 0.684-3.873 2.051-5.241s3.115-2.050 5.24-2.050h115.877c2.126 0 3.873 0.684 5.24 2.050s2.051 3.114 2.051 5.241v18.228c0 2.126-0.683 3.873-2.050 5.24zM384.238 239.124c-1.367 1.368-3.115 2.050-5.24 2.050h-115.877c-2.126 0-3.873-0.683-5.24-2.050-1.367-1.367-2.051-3.113-2.051-5.24v-18.229c0-2.127 0.684-3.873 2.051-5.24 1.367-1.366 3.115-2.050 5.24-2.050h115.877c2.126 0 3.873 0.683 5.24 2.050s2.051 3.115 2.051 5.24v18.228c0 2.126-0.683 3.873-2.050 5.24zM384.238 112.38c-1.367 1.367-3.115 2.050-5.24 2.050h-115.877c-2.126 0-3.873-0.683-5.24-2.050s-2.051-3.114-2.051-5.24v-18.228c0-2.127 0.684-3.873 2.051-5.24 1.367-1.366 3.115-2.050 5.24-2.050h115.877c2.126 0 3.873 0.683 5.24 2.050s2.051 3.115 2.051 5.24v18.228c0 2.126-0.683 3.873-2.050 5.24zM225.643 395.412c-5.056 5.056-11.236 7.62-18.365 7.62h-52.566c-7.131 0-13.31-2.564-18.365-7.62-5.058-5.057-7.623-11.237-7.623-18.368v-52.564c0-7.132 2.564-13.311 7.62-18.365 5.055-5.058 11.236-7.622 18.367-7.622h52.566c7.131 0 13.31 2.564 18.365 7.62 5.058 5.055 7.622 11.235 7.622 18.367v52.563c0 7.13-2.565 13.31-7.622 18.368zM152.397 377.044c0 0.713 0.167 1.109 0.686 1.628 0.521 0.52 0.917 0.688 1.629 0.688h52.566c0.714 0 1.109-0.167 1.629-0.687s0.685-0.915 0.685-1.63v-52.565c0-0.714-0.167-1.109-0.687-1.628s-0.916-0.687-1.628-0.687h-52.565c-0.713 0-1.108 0.167-1.629 0.689-0.519 0.519-0.685 0.913-0.685 1.626v52.566zM207.278 277.039h-52.566c-7.131 0-13.31-2.564-18.365-7.62-5.058-5.057-7.623-11.236-7.623-18.368v-52.565c0-7.132 2.564-13.31 7.62-18.365 5.056-5.058 11.236-7.622 18.367-7.622h52.566c7.131 0 13.31 2.564 18.365 7.62 5.058 5.055 7.622 11.235 7.622 18.366v52.565c0 7.13-2.564 13.31-7.622 18.368-5.056 5.056-11.236 7.619-18.365 7.619zM152.397 251.052c0 0.713 0.167 1.109 0.686 1.628 0.521 0.52 0.917 0.688 1.629 0.688h52.566c0.714 0 1.109-0.167 1.629-0.687 0.519-0.519 0.685-0.915 0.685-1.629v-52.565c0-0.714-0.167-1.11-0.687-1.629-0.519-0.519-0.915-0.687-1.627-0.687h-52.566c-0.713 0-1.108 0.167-1.63 0.689-0.519 0.518-0.685 0.913-0.685 1.627v52.565zM207.278 150.295h-52.566c-7.131 0-13.31-2.564-18.365-7.62-5.058-5.057-7.623-11.237-7.623-18.368v-52.565c0-7.132 2.564-13.31 7.62-18.365 5.056-5.058 11.236-7.622 18.367-7.622h52.566c7.131 0 13.31 2.564 18.365 7.62 5.058 5.055 7.622 11.235 7.622 18.366v52.565c0 7.13-2.564 13.31-7.622 18.368-5.056 5.057-11.236 7.62-18.365 7.62zM152.397 124.307c0 0.713 0.167 1.108 0.686 1.628 0.521 0.521 0.917 0.688 1.629 0.688h52.566c0.714 0 1.109-0.167 1.629-0.687s0.685-0.915 0.685-1.63v-52.565c0-0.714-0.167-1.11-0.687-1.629-0.519-0.519-0.915-0.687-1.627-0.687h-52.566c-0.713 0-1.108 0.167-1.63 0.689-0.519 0.518-0.685 0.913-0.685 1.627v52.565zM426.046-6.82h-337.432c-11.89 0-21.563 9.565-21.563 21.322v418.405c0 11.756 9.674 21.32 21.563 21.32h337.432c11.889 0 21.563-9.564 21.563-21.32v-418.405c0-11.757-9.673-21.322-21.563-21.322zM97.051 23.18h320.558v401.046h-320.558v-401.046z" />
<glyph unicode="&#xe641;" d="M319.575 392.403c-1.367 1.368-3.115 2.050-5.24 2.050h-115.877c-2.126 0-3.873-0.683-5.24-2.050s-2.051-3.114-2.051-5.24v-18.228c0-2.127 0.684-3.873 2.051-5.241s3.114-2.050 5.24-2.050h115.877c2.126 0 3.873 0.684 5.24 2.050s2.051 3.114 2.051 5.241v18.228c0 2.126-0.683 3.873-2.051 5.24zM319.575 269.398c-1.367 1.367-3.115 2.050-5.24 2.050h-115.877c-2.126 0-3.873-0.683-5.24-2.050s-2.051-3.114-2.051-5.24v-18.229c0-2.126 0.684-3.873 2.051-5.24 1.367-1.367 3.114-2.050 5.24-2.050h115.877c2.126 0 3.873 0.684 5.24 2.050s2.051 3.114 2.051 5.24v18.229c0 2.126-0.683 3.873-2.051 5.24zM319.575 145.654c-1.367 1.367-3.115 2.050-5.24 2.050h-115.877c-2.126 0-3.873-0.683-5.24-2.050s-2.051-3.114-2.051-5.24v-18.228c0-2.127 0.684-3.873 2.051-5.24 1.367-1.366 3.114-2.050 5.24-2.050h115.877c2.126 0 3.873 0.683 5.24 2.050s2.051 3.115 2.051 5.24v18.228c0 2.126-0.683 3.873-2.051 5.24zM160.981 422.686c-5.056 5.056-11.236 7.62-18.365 7.62h-52.566c-7.13 0-13.309-2.563-18.365-7.62-5.058-5.056-7.623-11.236-7.623-18.368v-52.564c0-7.132 2.564-13.311 7.621-18.365 5.055-5.058 11.236-7.622 18.367-7.622h52.566c7.131 0 13.31 2.564 18.365 7.62 5.058 5.055 7.622 11.235 7.622 18.367v52.563c0 7.13-2.565 13.31-7.622 18.368zM87.734 404.318c0 0.713 0.166 1.109 0.686 1.628 0.521 0.52 0.916 0.688 1.629 0.688h52.566c0.714 0 1.109-0.167 1.629-0.687s0.685-0.915 0.685-1.63v-52.565c0-0.714-0.167-1.109-0.687-1.628s-0.916-0.687-1.628-0.687h-52.566c-0.713 0-1.108 0.167-1.629 0.689-0.519 0.519-0.686 0.913-0.686 1.626v52.566zM142.614 307.313h-52.566c-7.13 0-13.309-2.564-18.365-7.62-5.058-5.057-7.623-11.236-7.623-18.368v-52.565c0-7.132 2.564-13.31 7.62-18.365 5.056-5.058 11.236-7.622 18.367-7.622h52.566c7.131 0 13.31 2.564 18.365 7.62 5.058 5.055 7.622 11.235 7.622 18.367v52.564c0 7.131-2.564 13.31-7.622 18.368-5.056 5.056-11.236 7.62-18.366 7.62zM87.734 281.325c0 0.713 0.166 1.109 0.686 1.628 0.521 0.52 0.916 0.688 1.629 0.688h52.566c0.714 0 1.109-0.167 1.629-0.687 0.519-0.519 0.685-0.914 0.685-1.629v-52.564c0-0.714-0.167-1.109-0.687-1.629-0.519-0.519-0.915-0.686-1.627-0.686h-52.566c-0.713 0-1.108 0.167-1.629 0.689-0.519 0.518-0.686 0.913-0.686 1.626v52.565zM142.614 183.569h-52.566c-7.13 0-13.309-2.564-18.365-7.62-5.058-5.057-7.623-11.237-7.623-18.368v-52.565c0-7.132 2.564-13.31 7.62-18.365 5.056-5.058 11.236-7.622 18.367-7.622h52.566c7.131 0 13.31 2.564 18.365 7.62 5.058 5.055 7.622 11.235 7.622 18.366v52.565c0 7.13-2.564 13.31-7.622 18.368-5.056 5.057-11.236 7.62-18.366 7.62zM87.734 157.581c0 0.713 0.166 1.108 0.686 1.628 0.521 0.521 0.916 0.688 1.629 0.688h52.566c0.714 0 1.109-0.167 1.629-0.687s0.685-0.915 0.685-1.63v-52.565c0-0.714-0.167-1.11-0.687-1.629-0.519-0.519-0.915-0.687-1.627-0.687h-52.566c-0.713 0-1.108 0.167-1.629 0.689-0.519 0.518-0.686 0.913-0.686 1.627v52.565zM425.113 418.75h-42.168v39.93c0 11.756-9.673 21.32-21.563 21.32h-337.432c-11.89 0-21.564-9.564-21.564-21.32v-408.108c0-11.757 9.674-21.322 21.563-21.322h42.166v-39.928c0-11.757 9.674-21.322 21.563-21.322h337.432c11.889 0 21.563 9.565 21.563 21.322v408.108c0.001 11.757-9.672 21.32-21.562 21.32zM32.388 450h320.558v-390.75h-320.558v390.75zM416.676-2h-320.558v31.25h265.265c11.889 0 21.563 9.565 21.563 21.322v338.178h33.73v-390.75z" />
<glyph unicode="&#xe642;" d="M303.56 391.721c0 2.023-0.649 3.683-1.949 4.984s-2.961 1.949-4.983 1.949h-110.187c-2.022 0-3.683-0.649-4.982-1.949s-1.95-2.961-1.95-4.984v-17.333c0-2.022 0.65-3.683 1.95-4.984s2.961-1.95 4.982-1.95h110.187c2.022 0 3.683 0.651 4.983 1.95 1.301 1.301 1.949 2.961 1.949 4.984v17.333zM301.611 252.441c1.301 1.301 1.949 2.962 1.949 4.983v17.334c0 2.022-0.649 3.684-1.949 4.983-1.3 1.3-2.961 1.949-4.983 1.949h-110.187c-2.022 0-3.683-0.649-4.982-1.949s-1.95-2.961-1.95-4.983v-17.334c0-2.022 0.65-3.683 1.95-4.983 1.299-1.299 2.961-1.95 4.982-1.95h110.187c2.022 0 3.683 0.65 4.983 1.95zM181.458 162.073c-1.3-1.3-1.95-2.96-1.95-4.983v-17.333c0-2.022 0.65-3.683 1.95-4.984 1.299-1.3 2.961-1.949 4.982-1.949h65.483l32.048 31.198h-97.531c-2.022 0-3.683-0.649-4.982-1.95zM158.052 408.035c-0 6.78-2.439 12.657-7.248 17.466-4.809 4.808-10.684 7.245-17.465 7.245h-49.984c-6.781 0-12.656-2.438-17.463-7.246-4.809-4.808-7.248-10.684-7.248-17.466v-49.982c0-6.782 2.438-12.657 7.246-17.464 4.808-4.809 10.683-7.248 17.465-7.248h49.984c6.781 0 12.656 2.438 17.464 7.246s7.248 10.684 7.248 17.466v49.983zM135.541 358.052c0-0.679-0.158-1.055-0.654-1.55-0.494-0.494-0.87-0.653-1.548-0.653h-49.983c-0.677 0-1.054 0.159-1.549 0.655-0.493 0.493-0.652 0.869-0.652 1.547v49.983c0 0.678 0.159 1.055 0.653 1.549s0.871 0.653 1.548 0.653h49.984c0.679 0 1.055-0.158 1.55-0.652 0.493-0.493 0.651-0.87 0.651-1.55v-49.983zM158.052 291.082c0 6.78-2.438 12.656-7.248 17.466-4.809 4.808-10.684 7.246-17.464 7.246h-49.984c-6.781 0-12.656-2.438-17.463-7.246-4.809-4.808-7.248-10.685-7.248-17.466v-49.983c0-6.781 2.438-12.656 7.246-17.463 4.808-4.809 10.684-7.248 17.465-7.248h49.984c6.781 0 12.656 2.437 17.464 7.246 4.809 4.808 7.248 10.684 7.248 17.464v49.983zM135.541 241.099c0-0.679-0.158-1.055-0.654-1.549-0.494-0.494-0.87-0.653-1.548-0.653h-49.983c-0.677 0-1.054 0.159-1.549 0.655-0.493 0.493-0.652 0.868-0.652 1.547v49.983c0 0.678 0.159 1.054 0.653 1.548 0.495 0.495 0.871 0.654 1.548 0.654h49.984c0.679 0 1.055-0.159 1.55-0.654 0.493-0.493 0.651-0.87 0.651-1.548v-49.983zM133.34 198.127h-49.984c-6.78 0-12.656-2.438-17.463-7.247-4.809-4.808-7.248-10.683-7.248-17.466v-49.983c0-6.781 2.438-12.657 7.246-17.464 4.808-4.808 10.684-7.248 17.465-7.248h49.984c6.781 0 12.656 2.438 17.464 7.247 4.809 4.807 7.248 10.683 7.248 17.465v49.983c0 6.781-2.438 12.656-7.248 17.466-4.809 4.81-10.684 7.247-17.464 7.247zM135.541 123.432c0-0.68-0.158-1.055-0.654-1.549-0.494-0.493-0.87-0.652-1.548-0.652h-49.983c-0.677 0-1.054 0.159-1.549 0.654-0.493 0.493-0.652 0.868-0.652 1.548v49.983c0 0.678 0.159 1.054 0.653 1.548 0.495 0.495 0.871 0.654 1.548 0.654h49.984c0.679 0 1.055-0.159 1.55-0.653 0.493-0.494 0.651-0.87 0.651-1.55v-49.983zM393.942 21.671h-26.928l-30.596-28.527h67.991c0 0 8.968-0.146 13.512 5.813 3.825 5.014 4.547 8.439 4.547 14.462 0 6.024 0 63.986 0 63.986l-28.527-28.047v-27.686zM169.751 51.387l28.945 28.527h-170.169v371.56h304.815v-239.079l28.527 28.557v152.28h32.073v-120.85l28.526 28.361v100.742c0 11.179-9.198 20.274-20.504 20.274h-40.096v37.969c-0 11.179-9.197 20.273-20.505 20.273h-320.861c-11.306 0-20.505-9.094-20.505-20.273v-388.066c0-11.178 9.198-20.274 20.505-20.274h40.096v-37.969c0-11.179 9.198-20.274 20.504-20.274h88.647v28.527h-80.625v29.716h80.625zM198.29 49.26v-81.62h81.618l163.24 163.238-81.62 81.618-163.238-163.237zM269.51-7.246v0l-20.993 0v25.114h-25.114v20.993l17.854 17.853 46.107-46.107-17.854-17.853zM367.805 179.142c2.878 0 4.317-1.44 4.317-4.317 0-1.308-0.458-2.42-1.374-3.335l-106.34-106.34c-0.915-0.916-2.027-1.373-3.336-1.373-2.876 0-4.315 1.439-4.315 4.317 0 1.308 0.459 2.42 1.374 3.335l106.34 106.34c0.915 0.916 2.027 1.373 3.335 1.373zM488.271 211.515l-46.106 45.911c-4.971 4.97-10.922 7.455-17.854 7.455-7.063 0-12.95-2.486-17.658-7.455l-32.568-32.373 81.618-81.618 32.569 32.568c4.842 4.841 7.26 10.726 7.26 17.659 0.001 6.802-2.418 12.752-7.26 17.853z" />
<glyph unicode="&#xe643;" d="M158.571 98.572l22.285 40.286q-24.857 18-38.857 45.428t-14 58q0 34.572 17.429 64.286-65.428-33.428-108.857-100.857 47.715-73.714 122-107.143zM269.714 315.428q0 5.715-4 9.715t-9.714 4q-35.714 0-61.286-25.572t-25.572-61.286q0-5.714 4-9.714t9.714-4 9.714 4 4 9.714q0 24.572 17.428 42t42 17.428q5.714 0 9.714 4t4 9.714zM373.428 370q0-2-0.286-2.572-30-53.714-90-161.714t-90.286-162l-14-25.428q-2.857-4.572-8-4.572-3.429 0-38.286 20-4.572 2.857-4.572 8 0 3.428 12.572 24.857-40.857 18.572-75.285 49.428t-59.572 70q-5.715 8.857-5.715 19.714t5.715 19.714q43.715 67.143 108.572 106t141.714 38.857q25.428 0 51.428-4.857l15.428 27.714q2.857 4.572 8 4.572 1.428 0 5.143-1.714t8.857-4.428 9.428-5.286 9-5.286 5.572-3.286q4.572-2.857 4.572-7.714zM384 242.286q0-39.714-22.572-72.428t-59.714-47l80 143.429q2.286-12.857 2.286-24zM512 205.714q0-10-5.714-19.714-11.143-18.286-31.143-41.428-42.857-49.143-99.286-76.286t-119.857-27.143l21.143 37.714q60.572 5.143 112.143 39.143t86.143 87.714q-32.857 51.143-80.572 84l18 32q27.143-18.286 52.143-43.714t41.286-52.572q5.714-9.714 5.714-19.714z" />
<glyph unicode="&#xe644;" d="M70.349 136.346c-12.579 3.433-12.681 24.433-1.081 28.19l192.052 47.966c11.413 3.33 21.476 3.021 31.426 0.839l199.279-47.177c13.308-3.861 15.397-22.13 1.083-28.188l-202.673-65.379c-8.597-2.594-12.976-2.716-24.108 0.988l-195.98 62.761zM163.652 4.877c0 0 24.043-36.351 117.387-36.351 90.044 0 122.759 34.345 122.759 34.345v79.289l-113.707-36.067c-8.61-2.552-12.988-2.652-24.102 1.106l-102.337 33.344v-75.666zM471.076 52.377h-6.091v51.781l-20.605-7.833v-43.948h-6.092c-3.292 0-5.961-3.122-5.961-6.974v-70.43c0-3.851 2.669-6.973 5.961-6.973h32.786c3.293 0 5.962 3.121 5.962 6.973v70.43c0 3.851-2.669 6.974-5.962 6.974zM307.060 387.221c0 2.023-0.649 3.683-1.949 4.984s-2.961 1.949-4.983 1.949h-110.186c-2.022 0-3.684-0.649-4.982-1.949-1.3-1.3-1.95-2.961-1.95-4.984v-17.333c0-2.022 0.651-3.683 1.95-4.984s2.961-1.95 4.982-1.95h110.186c2.022 0 3.683 0.651 4.983 1.95 1.302 1.301 1.949 2.961 1.949 4.984v17.333zM305.111 244.441c1.302 1.302 1.949 2.962 1.949 4.983v17.333c0 2.022-0.649 3.684-1.949 4.983-1.3 1.301-2.961 1.949-4.983 1.949h-110.186c-2.022 0-3.684-0.649-4.982-1.949-1.3-1.3-1.95-2.961-1.95-4.983v-17.334c0-2.022 0.651-3.681 1.95-4.983 1.299-1.299 2.961-1.948 4.982-1.948h110.186c2.022-0.001 3.683 0.649 4.983 1.948zM160.552 403.535c0 6.78-2.439 12.657-7.246 17.466-4.809 4.808-10.685 7.245-17.464 7.245h-49.984c-6.781 0-12.656-2.438-17.463-7.246-4.809-4.808-7.248-10.684-7.248-17.466v-49.982c0-6.782 2.438-12.657 7.246-17.464 4.807-4.809 10.683-7.248 17.465-7.248h49.984c6.781 0 12.656 2.438 17.464 7.246 4.807 4.808 7.246 10.684 7.246 17.466v49.983zM138.041 353.552c0-0.679-0.157-1.055-0.654-1.55-0.494-0.494-0.87-0.653-1.548-0.653h-49.983c-0.677 0-1.054 0.159-1.55 0.655-0.493 0.493-0.652 0.869-0.652 1.547v49.983c0 0.678 0.159 1.055 0.653 1.549s0.871 0.653 1.549 0.653h49.984c0.679 0 1.055-0.158 1.55-0.652 0.493-0.493 0.652-0.87 0.652-1.55v-49.983zM160.552 283.082c0 6.78-2.439 12.656-7.246 17.466-4.809 4.808-10.685 7.246-17.464 7.246h-49.984c-6.781 0-12.656-2.438-17.463-7.246-4.809-4.808-7.248-10.685-7.248-17.466v-49.983c0-6.781 2.438-12.657 7.246-17.465s10.683-7.247 17.465-7.247h49.984c6.781 0 12.656 2.438 17.464 7.245 4.807 4.808 7.246 10.684 7.246 17.465v49.984zM138.041 233.099c0-0.679-0.157-1.055-0.654-1.55-0.494-0.493-0.87-0.653-1.548-0.653h-49.983c-0.677 0-1.054 0.159-1.55 0.656-0.493 0.492-0.652 0.867-0.652 1.547v49.983c0 0.678 0.159 1.054 0.653 1.548 0.495 0.495 0.871 0.654 1.549 0.654h49.984c0.679 0 1.055-0.159 1.55-0.654 0.493-0.493 0.652-0.87 0.652-1.548v-49.983zM143.75 49.887v28.527h-111.722v371.56h304.814l-0.010-223.498 28.539-6.851v172.107h32.072v-179.907l28.527-6.913v195.072c0 11.179-9.198 20.274-20.505 20.274h-40.095v37.969c-0.002 11.179-9.199 20.273-20.505 20.273h-320.86c-11.306 0-20.505-9.094-20.505-20.273v-388.067c0-11.178 9.198-20.274 20.505-20.274h40.096v-37.969c0-11.178 9.198-20.274 20.504-20.274h59.208l-0.188 28.482-50.999 0.046v29.716l51.124-0.001z" />
<glyph unicode="&#xe645;" d="M209.275 50.62v-81.62h81.618l163.24 163.238-81.62 81.618-163.238-163.238zM280.495-5.885v0l-20.993 0v25.114h-25.114v20.993l17.853 17.853 46.107-46.107-17.853-17.853zM378.791 180.503c2.878 0 4.317-1.44 4.317-4.317 0-1.308-0.458-2.42-1.374-3.335l-106.34-106.34c-0.915-0.916-2.027-1.373-3.336-1.373-2.876 0-4.315 1.439-4.315 4.317 0 1.308 0.459 2.42 1.374 3.335l106.34 106.34c0.915 0.916 2.027 1.373 3.335 1.373zM499.257 212.876l-46.106 45.911c-4.971 4.97-10.922 7.455-17.854 7.455-7.063 0-12.95-2.486-17.658-7.455l-32.568-32.373 81.618-81.618 32.569 32.568c4.842 4.841 7.26 10.726 7.26 17.659 0 6.801-2.418 12.752-7.26 17.853zM330.171 383.924c-1.366 1.368-3.115 2.051-5.24 2.051h-115.878c-2.126 0-3.873-0.683-5.24-2.051-1.367-1.366-2.051-3.113-2.051-5.24v-18.228c0-2.126 0.684-3.874 2.051-5.241s3.114-2.050 5.24-2.050h115.877c2.126 0 3.873 0.684 5.24 2.050s2.051 3.115 2.051 5.241v18.228c0 2.127-0.683 3.873-2.050 5.24zM330.171 257.919c-1.366 1.368-3.115 2.051-5.24 2.051h-115.878c-2.126 0-3.873-0.683-5.24-2.051-1.367-1.366-2.051-3.114-2.051-5.24v-18.228c0-2.126 0.684-3.873 2.051-5.24 1.367-1.367 3.114-2.051 5.24-2.051h115.877c2.126 0 3.873 0.684 5.24 2.051s2.051 3.114 2.051 5.24v18.228c0 2.126-0.683 3.873-2.050 5.24zM268.618 138.469h-59.564c-2.126 0-3.873-0.683-5.24-2.050-1.367-1.366-2.051-3.114-2.051-5.24v-18.228c0-2.127 0.684-3.873 2.051-5.24 1.367-1.366 3.114-2.051 5.24-2.051h26.754l32.81 32.81zM171.576 414.207c-5.056 5.056-11.236 7.62-18.365 7.62h-52.566c-7.13 0-13.309-2.563-18.364-7.62-5.058-5.056-7.623-11.236-7.623-18.367v-52.565c0-7.131 2.564-13.311 7.62-18.365 5.055-5.058 11.236-7.621 18.367-7.621h52.566c7.131 0 13.31 2.564 18.365 7.62 5.058 5.055 7.622 11.235 7.622 18.367v52.564c0 7.13-2.564 13.31-7.622 18.368zM98.329 395.839c0 0.713 0.166 1.109 0.686 1.628 0.521 0.521 0.916 0.688 1.629 0.688h52.566c0.714 0 1.11-0.166 1.629-0.686s0.685-0.915 0.685-1.63v-52.565c0-0.714-0.167-1.109-0.687-1.629s-0.916-0.687-1.628-0.687h-52.566c-0.713 0-1.108 0.167-1.629 0.689-0.519 0.518-0.686 0.913-0.686 1.627l-0.001 52.565zM153.21 295.834h-52.566c-7.13 0-13.309-2.564-18.364-7.62-5.058-5.057-7.623-11.237-7.623-18.368v-52.565c0-7.132 2.564-13.31 7.62-18.365 5.055-5.058 11.236-7.622 18.367-7.622h52.566c7.131 0 13.31 2.564 18.365 7.62 5.058 5.055 7.622 11.235 7.622 18.366v52.565c0 7.131-2.564 13.31-7.622 18.368-5.056 5.056-11.235 7.62-18.365 7.62zM98.329 269.846c0 0.714 0.166 1.11 0.686 1.629 0.521 0.52 0.916 0.688 1.629 0.688h52.566c0.714 0 1.11-0.167 1.629-0.687 0.519-0.519 0.685-0.915 0.685-1.63v-52.565c0-0.714-0.167-1.11-0.687-1.629-0.519-0.519-0.915-0.687-1.627-0.687h-52.566c-0.713 0-1.108 0.167-1.629 0.689-0.519 0.518-0.686 0.913-0.686 1.627v52.565zM153.21 169.091h-52.566c-7.13 0-13.309-2.564-18.364-7.62-5.058-5.057-7.623-11.237-7.623-18.367v-52.565c0-7.132 2.564-13.31 7.62-18.365 5.055-5.058 11.236-7.622 18.367-7.622h52.566c7.131 0 13.31 2.564 18.365 7.62 5.058 5.055 7.622 11.235 7.622 18.366v52.565c0 7.13-2.564 13.31-7.622 18.368-5.056 5.056-11.236 7.62-18.365 7.62zM98.329 143.103c0 0.713 0.166 1.108 0.686 1.628 0.521 0.521 0.916 0.688 1.629 0.688h52.566c0.714 0 1.11-0.167 1.629-0.687s0.685-0.915 0.685-1.63v-52.565c0-0.714-0.167-1.11-0.687-1.63-0.519-0.519-0.915-0.687-1.627-0.687h-52.566c-0.713 0-1.108 0.167-1.629 0.69-0.519 0.517-0.686 0.913-0.686 1.627v52.565zM182.25 11.975h-147.703c-11.89 0-21.564 9.565-21.564 21.322v418.405c0 11.756 9.674 21.32 21.564 21.32h337.432c11.889 0 21.563-9.564 21.563-21.32v-185.459l-30-29.949v206.728h-320.558v-401.046h139.267v-30z" />
<glyph unicode="&#xe646;" d="M256 428.75l-133.125-124.922h84.484v-131.078h97.281v131.078h84.5l-133.14 124.922zM97.781 187.594l-81.484-54.828c-12.134-7.245-19.376-23.961-16.125-37.094l14.36-78.703c3.251-13.159 17.68-23.938 32.016-23.938h417.625c14.387 0 28.796 10.779 32.047 23.938l14.36 78.703c3.303 13.159-3.959 29.849-16.094 37.094l-81.516 54.828h-50.25l87.031-66.765h-90.75c-2.611 0-4.938-1.332-6.14-3.406l-20.89-57.219h-153.188l-20.922 57.219c-1.152 2.074-3.53 3.406-6.141 3.406h-90.719l87.063 66.765h-50.281z" />
<glyph unicode="&#xe647;" d="M66.993 129.842c-11.993 4.158-12.819 23.147-1.24 26.788l184.216 46.732c11.394 3.233 21.459 2.998 31.421 0.984l199.542-43.657c13.329-3.591 15.522-20.943 1.242-26.786l-202.3-63.345c-8.582-2.517-12.96-2.659-24.113 0.796l-188.768 58.489zM152.694 4.877c0 0 24.043-36.351 117.386-36.351 90.044 0 122.758 34.345 122.758 34.345v79.289l-113.707-36.067c-8.61-2.552-12.988-2.652-24.102 1.106l-102.337 33.344v-75.666zM460.118 52.377h-6.091v51.781l-20.604-7.833v-43.948h-6.092c-3.292 0-5.961-3.122-5.961-6.974v-70.43c0-3.851 2.669-6.973 5.961-6.973h32.786c3.293 0 5.962 3.121 5.962 6.973v70.43c0.001 3.851-2.668 6.974-5.961 6.974zM321.286 388.913c-1.366 1.368-3.115 2.050-5.24 2.050h-115.877c-2.126 0-3.873-0.683-5.24-2.050-1.367-1.366-2.051-3.113-2.051-5.24v-18.228c0-2.127 0.684-3.874 2.051-5.241 1.367-1.366 3.114-2.050 5.24-2.050h115.877c2.126 0 3.873 0.684 5.24 2.050 1.367 1.368 2.051 3.115 2.051 5.241v18.228c0 2.127-0.683 3.873-2.051 5.24zM321.286 266.909c-1.366 1.368-3.115 2.050-5.24 2.050h-115.877c-2.126 0-3.873-0.683-5.24-2.050-1.367-1.366-2.051-3.114-2.051-5.24v-18.228c0-2.126 0.684-3.873 2.051-5.24 1.367-1.367 3.114-2.051 5.24-2.051h115.877c2.126 0 3.873 0.684 5.24 2.051s2.051 3.114 2.051 5.24v18.228c0 2.126-0.683 3.873-2.051 5.24zM158.69 419.197c-5.056 5.056-11.236 7.62-18.365 7.62h-52.566c-7.13 0-13.309-2.564-18.364-7.62-5.058-5.057-7.623-11.236-7.623-18.368v-52.565c0-7.131 2.564-13.311 7.62-18.365 5.055-5.058 11.236-7.621 18.367-7.621h52.566c7.131 0 13.31 2.564 18.365 7.62 5.058 5.055 7.622 11.235 7.622 18.367v52.563c0 7.131-2.565 13.31-7.622 18.368zM85.444 400.829c0 0.713 0.166 1.109 0.686 1.628 0.521 0.52 0.916 0.688 1.629 0.688h52.566c0.714 0 1.11-0.166 1.629-0.687 0.519-0.519 0.685-0.915 0.685-1.629v-52.565c0-0.714-0.167-1.109-0.687-1.629s-0.916-0.687-1.628-0.687h-52.566c-0.713 0-1.108 0.167-1.629 0.689-0.519 0.518-0.686 0.913-0.686 1.627l-0.001 52.565zM140.325 304.823h-52.566c-7.13 0-13.309-2.564-18.365-7.62-5.058-5.057-7.623-11.236-7.623-18.367v-52.565c0-7.131 2.564-13.309 7.62-18.364 5.055-5.058 11.236-7.622 18.367-7.622h52.566c7.131 0 13.31 2.563 18.365 7.62 5.058 5.055 7.622 11.236 7.622 18.366v52.565c0 7.131-2.564 13.31-7.622 18.368-5.056 5.057-11.236 7.62-18.366 7.62zM85.444 278.836c0 0.713 0.166 1.109 0.686 1.628 0.521 0.521 0.916 0.688 1.629 0.688h52.566c0.714 0 1.11-0.166 1.629-0.687 0.519-0.519 0.685-0.915 0.685-1.63v-52.565c0-0.714-0.167-1.109-0.687-1.629-0.519-0.519-0.915-0.686-1.627-0.686h-52.566c-0.713 0-1.108 0.167-1.629 0.69-0.519 0.518-0.686 0.913-0.686 1.626v52.565zM125 16.964h-99.838c-11.89 0-21.564 9.565-21.564 21.322v418.405c0 11.756 9.674 21.32 21.564 21.32h337.432c11.889 0 21.563-9.564 21.563-21.32v-236.058l-30 6.734v220.643h-320.558v-401.046h91.402v-30z" />
<glyph unicode="&#xe648;" d="M216.163 441.976h235.794c2.456-0 4.582-0.898 6.377-2.692s2.692-3.921 2.692-6.377v-101.657c20.947-13.755 36.276-36 36.276-36v137.658c0 12.469-4.44 23.144-13.32 32.024s-19.555 13.32-32.024 13.32h-235.794c-12.47 0-23.145-4.44-32.025-13.32s-13.32-19.555-13.32-32.024v-37.658c0 0 13.43 8.5 36.275 9.5v28.157c0 2.456 0.898 4.582 2.692 6.377s3.921 2.692 6.377 2.692zM170.82 42.083v-26.991c0-12.469 4.44-23.144 13.32-32.024s19.554-13.32 32.025-13.32h235.794c12.469 0 23.145 4.44 32.024 13.32s13.32 19.555 13.32 32.024v153.658c0 0-4.053-12-36.276-37.5v-79.882c0-2.455-0.897-4.582-2.692-6.377s-3.92-2.692-6.377-2.692l-281.139-0.216zM346.814-6.731c-3.59-3.589-7.841-5.384-12.753-5.384s-9.163 1.795-12.753 5.384c-3.59 3.591-5.385 7.842-5.385 12.754s1.795 9.163 5.385 12.752c3.59 3.59 7.841 5.385 12.753 5.385s9.163-1.795 12.753-5.385c3.589-3.589 5.385-7.841 5.385-12.752s-1.795-9.163-5.385-12.754zM466.382 232.251c-27.759 42.374-62.549 74.064-104.369 95.071 11.139-18.674 16.71-38.873 16.71-60.597 0-33.217-12.008-61.63-36.022-85.24s-52.915-35.415-86.7-35.415c-33.784 0-62.685 11.805-86.7 35.415s-36.022 52.024-36.022 85.24c0 21.725 5.57 41.925 16.709 60.597-41.82-21.008-76.61-52.697-104.368-95.071 24.288-36.806 54.74-66.118 91.356-87.931 36.615-21.815 76.291-32.722 119.024-32.724 42.734 0 82.409 10.907 119.024 32.724 36.615 21.815 67.067 51.125 91.356 87.931zM269.149 335.671c0 3.591-1.279 6.643-3.835 9.157s-5.662 3.771-9.315 3.771c-22.827 0-42.414-8.035-58.758-24.104s-24.516-35.326-24.517-57.769c0-3.591 1.279-6.644 3.835-9.157s5.661-3.77 9.315-3.77c3.653 0 6.757 1.257 9.314 3.77s3.835 5.565 3.835 9.157c0 15.441 5.57 28.637 16.709 39.59 11.141 10.953 24.563 16.428 40.269 16.428 3.652 0 6.757 1.257 9.313 3.771 2.558 2.514 3.835 5.566 3.835 9.157v0zM501.445 232.251c0-6.105-1.826-12.299-5.479-18.583-25.567-41.296-59.947-74.377-103.137-99.244s-88.8-37.301-136.829-37.301c-48.030-0.001-93.639 12.478-136.83 37.435s-77.57 57.993-103.137 99.11c-3.653 6.284-5.479 12.48-5.479 18.584s1.826 12.299 5.479 18.584c25.567 41.115 59.946 74.153 103.136 99.111s88.8 37.435 136.83 37.435c48.030 0 93.64-12.478 136.829-37.435 43.19-24.958 77.57-57.995 103.137-99.111 3.654-6.285 5.479-12.48 5.479-18.584v-0.001z" />
<glyph unicode="&#xe649;" d="M148.491-12.524c-3.279 0-6.612 0.293-9.905 0.873-10.495 1.843-27.057 9.724-37.7 17.942-9.883 7.602-17.388 16.334-22.916 26.674-8.563 16.012-8.77 34.395-0.57 50.434 11.114 21.736 26.386 25.753 36.491 28.411 1.314 0.344 2.547 0.666 3.726 1.002-2.54 2.435-6.287 5.624-11.784 9.606l-74.044 53.637c-8.931 6.469-10.941 18.948-4.491 27.894l55.666 77.209c9.671 13.349 17.932 21.712 26.024 26.356 4.653 2.675 9.381 4.139 14.036 4.342 0.023 0.001 0.046 0.002 0.069 0.003 0.344 0.013 0.683 0.020 1.020 0.020 5.23 0 10.225-1.604 14.446-4.639 0.452-0.324 0.886-0.665 1.303-1.020 2.572-2.118 4.781-4.765 6.579-7.889 4.48-7.803 6.385-15.043 7.776-20.328l0.013-0.051c2.311-8.81 2.791-10.64 10.943-14.809 3.015-1.54 6.078-2.323 9.094-2.323 3.235 0 6.506 0.872 9.721 2.591 3.789 2.024 7.246 5.103 10.007 8.911 2.745 3.791 4.591 8.033 5.332 12.261 1.232 7.011-0.658 13.051-5.615 17.964-6.071 6.018-8.798 6.018-11.957 6.018-1.606 0-3.5-0.115-5.506-0.237-2.373-0.143-5.059-0.305-8.057-0.305-4.845 0-9.335 0.442-13.727 1.351-4.081 0.843-7.732 2.409-10.845 4.654-0.020 0.014-0.040 0.029-0.060 0.043-4.528 3.29-7.728 7.894-9.258 13.315-1.266 4.471-1.356 9.429-0.261 14.718 1.895 9.149 7.268 19.605 16.907 32.909l57.404 79.249c3.112 4.296 7.802 7.18 13.041 8.017s10.594-0.44 14.889-3.552l75.177-54.456c5.498-3.984 9.696-6.551 12.801-8.203-0.048 1.216-0.123 2.476-0.205 3.815-0.627 10.474-1.57 26.238 15.622 43.57 10.403 10.498 23.612 16.050 38.192 16.050 3.279 0 6.611-0.293 9.905-0.873 7.401-1.3 21.781-4.99 34.911-15.109 13.942-10.731 21.675-21.966 25.704-29.501 8.563-16.032 8.771-34.414 0.575-50.441-11.12-21.757-26.408-25.764-36.524-28.416l-0.053-0.014c-1.281-0.337-2.486-0.655-3.642-0.985 2.536-2.433 6.283-5.62 11.784-9.603l65.526-47.466c8.945-6.48 10.944-18.985 4.464-27.93l-57.407-79.252c-9.63-13.302-17.889-21.666-25.99-26.32-4.711-2.7-9.455-4.159-14.118-4.344-0.324-0.013-0.676-0.021-1.024-0.021-5.229 0-10.221 1.602-14.438 4.633-0.521 0.375-1.018 0.769-1.492 1.183-2.495 2.091-4.643 4.692-6.399 7.752-4.487 7.81-6.392 15.069-7.783 20.368-2.309 8.798-2.79 10.63-10.933 14.791-3.072 1.57-6.051 2.333-9.11 2.333-3.229 0-6.495-0.87-9.709-2.589-3.794-2.028-7.25-5.104-9.995-8.896-2.757-3.806-4.605-8.052-5.348-12.284-1.231-7.004 0.658-13.046 5.616-17.962 6.045-5.994 8.778-6.019 11.921-6.019 0.014 0 0.026 0 0.039 0 1.605 0 3.498 0.115 5.501 0.236 2.381 0.144 5.084 0.308 8.086 0.308 4.834 0 9.315-0.441 13.697-1.347 0.025-0.005 0.050-0.010 0.074-0.015 4.056-0.855 7.675-2.413 10.757-4.631 0.033-0.024 0.067-0.048 0.099-0.072 4.501-3.281 7.69-7.865 9.223-13.256 1.279-4.515 1.366-9.481 0.264-14.778-1.885-9.12-7.257-19.579-16.897-32.888l-55.637-77.169c-3.106-4.309-7.8-7.205-13.044-8.050s-10.61 0.432-14.911 3.548l-66.66 48.283c-5.5 3.986-9.698 6.553-12.804 8.207 0.047-1.217 0.123-2.479 0.203-3.821 0.632-10.445 1.588-26.217-15.617-43.565-10.259-10.347-23.825-16.048-38.198-16.048zM156.601 90.966c-2.746-3.796-6.357-6.99-10.733-9.497-8.433-4.845-16.164-6.868-21.809-8.346-7.462-1.963-8.073-2.123-11.043-7.935-2.275-4.449-2.2-8.821 0.23-13.363 1.935-3.62 5.054-8.464 12.059-13.852 6.763-5.221 17.369-9.667 20.235-10.234 0.987-0.173 1.989-0.263 2.953-0.263 3.78 0 6.983 1.377 9.792 4.212 4.6 4.638 4.562 5.268 4.095 12.976-0.371 6.171-0.833 13.825 1.142 23.342 1.022 4.933 2.93 9.356 5.673 13.139 4.075 5.612 9.761 9.575 16.458 11.476 5.4 1.529 11.338 1.656 17.555 0.369 9.873-2.048 21.373-7.9 35.166-17.894l50.425-36.524 43.94 60.947c0.768 1.060 1.478 2.065 2.135 3.016-0.172-0.001-0.344-0.002-0.517-0.002-15.466-0-27.841 5.433-40.127 17.616-14.188 14.069-20.329 33.491-16.848 53.287 1.785 10.168 6.055 20.136 12.346 28.822 6.279 8.675 14.419 15.839 23.535 20.712 8.949 4.784 18.827 7.313 28.566 7.313 9.407 0 18.598-2.26 27.315-6.717 19.512-9.973 25.998-22.469 29.404-33.127 0.69 0.909 1.413 1.885 2.169 2.929l45.678 63.059-49.324 35.731c-13.516 9.785-22.57 18.724-27.647 27.302-0.11 0.178-0.217 0.358-0.322 0.54-3.158 5.502-4.88 11.138-5.116 16.753-0.001 0.024-0.002 0.050-0.003 0.075-0.267 6.952 1.731 13.581 5.779 19.172 2.729 3.777 6.339 6.976 10.716 9.491 8.407 4.826 15.793 6.77 21.728 8.334l0.074 0.019c7.491 1.964 8.101 2.124 11.073 7.937 2.274 4.448 2.197 8.823-0.237 13.379-1.779 3.325-6.078 9.927-14.834 16.665-6.776 5.221-15.050 6.987-17.425 7.404-1.018 0.179-2.021 0.27-2.985 0.27-3.776 0-6.977-1.378-9.786-4.213-4.599-4.637-4.562-5.267-4.101-12.974 0.373-6.168 0.837-13.828-1.139-23.346-1.003-4.888-2.909-9.317-5.654-13.115-4.073-5.62-9.757-9.588-16.455-11.495-5.419-1.541-11.377-1.661-17.613-0.359-9.839 2.038-21.341 7.889-35.129 17.88l-58.978 42.72-45.673-63.054c-0.76-1.048-1.462-2.041-2.113-2.982 0.175 0.001 0.35 0.002 0.526 0.002 15.46 0 27.832-5.431 40.116-17.609 14.189-14.063 20.333-33.485 16.855-53.284-1.78-10.163-6.048-20.133-12.34-28.821-6.306-8.697-14.447-15.859-23.546-20.719-8.945-4.782-18.827-7.312-28.572-7.313-9.401 0-18.587 2.256-27.3 6.706-19.523 9.987-26.010 22.482-29.413 33.136-0.691-0.91-1.414-1.886-2.172-2.931l-43.969-60.985 57.883-41.928c13.661-9.894 22.763-18.918 27.815-27.579 0.051-0.086 0.101-0.173 0.151-0.259 3.165-5.51 4.887-11.156 5.119-16.779 0.288-6.97-1.71-13.62-5.779-19.229z" />
<glyph unicode="&#xe64a;" d="M555.651 295.432l-0.031 0.052c-21.459 35.1-50.716 63.698-86.961 85-36.269 21.317-75.118 32.125-115.466 32.125s-79.196-10.808-115.464-32.125c-36.245-21.303-65.502-49.901-86.96-85l-0.030-0.051c-3.219-5.632-4.85-11.29-4.85-16.817 0-5.528 1.631-11.185 4.85-16.816l0.030-0.051c21.458-35.102 50.716-63.699 86.96-85.001 36.269-21.317 75.117-32.126 115.464-32.125 40.346 0 79.195 10.769 115.463 32.008 36.246 21.227 65.505 49.866 86.965 85.12l0.029 0.048c3.217 5.631 4.849 11.289 4.849 16.817s-1.631 11.184-4.849 16.815zM353.195 178.010c-35.195 0-68.332 9.267-98.49 27.542-29.856 18.093-55.094 42.669-75.034 73.066 21.464 32.974 48.297 58.475 79.844 75.899-7.295-14.479-10.988-30.117-10.988-46.579 0-28.681 10.337-53.561 30.722-73.947s45.264-30.721 73.947-30.721c28.681 0 53.562 10.336 73.947 30.721s30.721 45.264 30.721 73.947c0 16.462-3.693 32.099-10.988 46.579 31.547-17.425 58.38-42.926 79.844-75.899-19.94-30.396-45.179-54.974-75.034-73.066-30.159-18.276-63.296-27.543-98.49-27.543zM360.986 358.8c-2.138-2.139-4.734-3.208-7.79-3.208-13.135 0-24.361-4.659-33.678-13.974-9.317-9.317-13.974-20.542-13.974-33.678 0-3.055-1.070-5.651-3.208-7.79s-4.735-3.207-7.789-3.207-5.652 1.069-7.789 3.207c-2.138 2.139-3.207 4.736-3.207 7.79 0 19.091 6.834 35.472 20.504 49.142 13.668 13.67 30.050 20.505 49.142 20.505 3.054 0 5.651-1.070 7.789-3.208s3.207-4.735 3.207-7.79h0c-0-3.054-1.069-5.651-3.207-7.788zM491.673 129.443v-47.305c0-12.073-4.298-22.407-12.894-31.004-8.598-8.596-18.932-12.896-31.005-12.896h-131.699c0-6.767 1.463-13.856 4.39-21.264s5.853-13.901 8.781-19.48c2.926-5.579 4.39-9.557 4.39-11.935 0-4.755-1.738-8.871-5.214-12.346s-7.591-5.214-12.346-5.214h-140.479c-4.756 0-8.871 1.738-12.346 5.214-3.476 3.475-5.213 7.591-5.213 12.346 0 2.561 1.463 6.586 4.39 12.073s5.854 11.889 8.78 19.206c2.926 7.317 4.39 14.45 4.39 21.401h-131.7c-12.072 0-22.407 4.299-31.004 12.896s-12.896 18.93-12.896 31.003v340.247c0 12.073 4.298 22.407 12.896 31.005 8.597 8.596 18.931 12.895 31.004 12.895h403.877c12.072 0 22.406-4.298 31.003-12.895 5.933-5.934 9.82-12.695 11.658-20.284l-42.663-1.94h-403.877c-2.378 0-4.436-0.869-6.173-2.606-1.737-1.739-2.606-3.797-2.606-6.173v-283.692c0-2.378 0.869-4.435 2.606-6.173s3.795-2.607 6.173-2.607h403.877l43.899-0.471z" horiz-adv-x="561" />
<glyph unicode="&#xe64b;" d="M499.262 282.932l-0.031 0.052c-21.459 35.1-50.716 63.699-86.961 85-36.269 21.317-75.118 32.125-115.466 32.125s-79.197-10.808-115.466-32.125c-36.244-21.302-65.502-49.901-86.96-85l-0.031-0.051c-3.219-5.632-4.85-11.29-4.85-16.817s1.632-11.185 4.85-16.816l0.031-0.052c21.458-35.101 50.716-63.698 86.96-85.001 36.269-21.317 75.116-32.126 115.466-32.125 40.345 0 79.195 10.769 115.463 32.009 36.246 21.227 65.505 49.866 86.965 85.12l0.029 0.048c3.218 5.632 4.849 11.288 4.849 16.817 0.002 5.528-1.63 11.185-4.849 16.815zM296.807 165.51c-35.196 0.002-68.332 9.267-98.49 27.542-29.857 18.094-55.094 42.671-75.034 73.066 21.464 32.974 48.297 58.475 79.844 75.899-7.295-14.479-10.988-30.117-10.988-46.578 0-28.682 10.337-53.561 30.721-73.947 20.386-20.385 45.264-30.721 73.948-30.721 28.68 0 53.562 10.336 73.947 30.721s30.721 45.264 30.721 73.947c0 16.462-3.693 32.1-10.99 46.578 31.548-17.424 58.381-42.926 79.844-75.899-19.94-30.395-45.179-54.973-75.034-73.066-30.159-18.276-63.295-27.543-98.49-27.543zM304.596 346.3c-2.138-2.139-4.735-3.208-7.79-3.208-13.135 0-24.362-4.659-33.678-13.974-9.317-9.317-13.974-20.542-13.974-33.678 0-3.055-1.070-5.651-3.208-7.79s-4.736-3.207-7.789-3.207c-3.054 0-5.653 1.069-7.79 3.207-2.138 2.139-3.207 4.736-3.207 7.79 0 19.091 6.834 35.472 20.504 49.142 13.669 13.67 30.051 20.505 49.141 20.505 3.053 0 5.651-1.070 7.789-3.208 2.137-2.139 3.207-4.735 3.207-7.79v0c-0-3.054-1.068-5.651-3.207-7.788zM197.931 11.62c0 5.125-1.872 9.56-5.617 13.305s-8.18 5.618-13.305 5.618c-5.124 0-9.559-1.873-13.303-5.618s-5.617-8.18-5.617-13.305c0-5.124 1.873-9.558 5.617-13.303s8.18-5.617 13.303-5.617c5.125 0 9.56 1.873 13.305 5.617s5.617 8.178 5.617 13.303zM349.309 102.677v-81.596c0-13.010-4.632-24.145-13.896-33.409s-20.4-13.896-33.409-13.896h-245.988c-13.010 0-24.145 4.632-33.41 13.896s-13.896 20.401-13.896 33.409v394.399c0 13.009 4.632 24.145 13.896 33.409s20.401 13.896 33.41 13.896h245.988c13.010 0 24.145-4.632 33.409-13.896 6.632-6.631 10.889-15.339 12.774-23.889l-44.736-0.164c-0.469 0.070-0.952 0.105-1.448 0.105h-245.987c-2.562 0-4.78-0.937-6.653-2.809s-2.808-4.091-2.808-6.652v-356.554c0-2.563 0.935-4.781 2.808-6.653s4.090-2.808 6.653-2.808h245.988c2.562 0 4.781 0.936 6.652 2.808s2.808 4.091 2.808 6.653v38.714c0-0 13.534 0.127 37.844 5.038z" />
<glyph unicode="&#xe64c;" d="M493.308 240.683v-44.435c0-4.733-1.731-8.825-5.185-12.279-3.458-3.458-7.552-5.185-12.281-5.185h-439.687c-4.733 0-8.826 1.726-12.279 5.185-3.458 3.454-5.185 7.547-5.185 12.279v44.435c0 4.728 1.727 8.822 5.185 12.28 3.453 3.454 7.547 5.185 12.279 5.185h439.688c4.728 0 8.822-1.731 12.281-5.185 3.452-3.458 5.184-7.551 5.184-12.28zM446.529 317.5c0-3.59-2.91-6.5-6.5-6.5h-368.058c-3.59 0-6.5 2.91-6.5 6.5v20c0 3.59 2.91 6.5 6.5 6.5h368.058c3.59 0 6.5-2.91 6.5-6.5v-20zM446.529 412.745c0-3.59-2.91-6.5-6.5-6.5h-368.058c-3.59 0-6.5 2.91-6.5 6.5v20c0 3.59 2.91 6.5 6.5 6.5h368.058c3.59 0 6.5-2.91 6.5-6.5v-20zM446.529 7.512c0-3.59-2.91-6.5-6.5-6.5h-368.058c-3.59 0-6.5 2.91-6.5 6.5v20c0 3.59 2.91 6.5 6.5 6.5h368.058c3.59 0 6.5-2.91 6.5-6.5v-20zM446.529 98.259c0-3.59-2.91-6.5-6.5-6.5h-368.058c-3.59 0-6.5 2.91-6.5 6.5v20c0 3.59 2.91 6.5 6.5 6.5h368.058c3.59 0 6.5-2.91 6.5-6.5v-20z" />
<glyph unicode="&#xe64d;" d="M491.715 366.146v-302.659c0-12.24-4.36-22.719-13.074-31.435-8.719-8.719-19.195-13.074-31.435-13.074h-373.873c-12.239 0-22.719 4.356-31.434 13.074-8.719 8.715-13.075 19.195-13.075 31.435v302.659c0 12.239 4.355 22.715 13.075 31.434 8.715 8.715 19.195 13.074 31.434 13.074h373.872c12.24 0 22.715-4.359 31.435-13.074 8.715-8.719 13.075-19.195 13.075-31.434zM171.253 277.129v53.41c0 2.595-0.834 4.729-2.504 6.398s-3.803 2.503-6.398 2.503h-89.017c-2.599 0-4.729-0.834-6.398-2.503s-2.504-3.803-2.504-6.398v-53.41c0-2.6 0.835-4.729 2.504-6.398s3.799-2.504 6.398-2.504h89.017c2.595 0 4.729 0.835 6.398 2.504s2.504 3.799 2.504 6.398zM171.253 170.308v53.411c0 2.595-0.834 4.729-2.504 6.398s-3.803 2.504-6.398 2.504h-89.017c-2.599 0-4.729-0.834-6.398-2.504s-2.504-3.803-2.504-6.398v-53.411c0-2.599 0.835-4.728 2.504-6.397s3.799-2.504 6.398-2.504h89.017c2.595 0 4.729 0.834 6.398 2.504 1.669 1.668 2.504 3.798 2.504 6.397zM171.253 63.488v53.41c0 2.594-0.834 4.729-2.504 6.399s-3.803 2.504-6.398 2.504h-89.017c-2.599 0-4.729-0.835-6.398-2.504s-2.504-3.803-2.504-6.399v-53.41c0-2.599 0.835-4.728 2.504-6.399 1.669-1.669 3.799-2.503 6.398-2.503h89.017c2.595 0 4.729 0.834 6.398 2.503 1.669 1.67 2.504 3.798 2.504 6.399zM313.68 277.129v53.41c0 2.595-0.835 4.729-2.504 6.398s-3.803 2.503-6.399 2.503h-89.017c-2.599 0-4.729-0.834-6.398-2.503s-2.504-3.803-2.504-6.398v-53.41c0-2.6 0.834-4.729 2.504-6.398s3.799-2.504 6.398-2.504h89.017c2.596 0 4.729 0.835 6.399 2.504s2.503 3.799 2.503 6.398zM313.68 170.308v53.411c0 2.595-0.835 4.729-2.504 6.398s-3.803 2.504-6.399 2.504h-89.017c-2.599 0-4.729-0.834-6.398-2.504s-2.504-3.803-2.504-6.398v-53.411c0-2.599 0.834-4.728 2.504-6.397s3.799-2.504 6.398-2.504h89.017c2.596 0 4.729 0.834 6.399 2.504 1.668 1.668 2.503 3.798 2.503 6.397zM313.68 63.488v53.41c0 2.594-0.835 4.729-2.504 6.399s-3.803 2.504-6.399 2.504h-89.017c-2.599 0-4.729-0.835-6.398-2.504s-2.504-3.803-2.504-6.399v-53.41c0-2.599 0.834-4.728 2.504-6.399 1.669-1.669 3.799-2.503 6.398-2.503h89.017c2.596 0 4.729 0.834 6.399 2.503 1.668 1.67 2.503 3.798 2.503 6.399zM456.108 277.129v53.41c0 2.595-0.834 4.729-2.503 6.398s-3.803 2.503-6.399 2.503h-89.017c-2.599 0-4.729-0.834-6.399-2.503s-2.504-3.803-2.504-6.398v-53.41c0-2.6 0.835-4.729 2.504-6.398s3.799-2.504 6.399-2.504h89.017c2.594 0 4.729 0.835 6.399 2.504s2.503 3.799 2.503 6.398zM456.108 170.308v53.411c0 2.595-0.834 4.729-2.503 6.398s-3.803 2.504-6.399 2.504h-89.017c-2.599 0-4.729-0.834-6.399-2.504s-2.504-3.803-2.504-6.398v-53.411c0-2.599 0.835-4.728 2.504-6.397s3.799-2.504 6.399-2.504h89.017c2.594 0 4.729 0.834 6.399 2.504 1.669 1.668 2.503 3.798 2.503 6.397zM456.108 63.488v53.41c0 2.594-0.834 4.729-2.503 6.399s-3.803 2.504-6.399 2.504h-89.017c-2.599 0-4.729-0.835-6.399-2.504s-2.504-3.803-2.504-6.399v-53.41c0-2.599 0.835-4.728 2.504-6.399 1.669-1.669 3.799-2.503 6.399-2.503h89.017c2.594 0 4.729 0.834 6.399 2.503 1.669 1.67 2.503 3.798 2.503 6.399z" />
<glyph unicode="&#xe64e;" d="M132.949 152.171c-9.423 0-17.973 3.573-24.725 10.332-6.744 6.736-10.316 15.286-10.316 24.709v178.498c0 11.337 5.467 21.638 15.395 29.005l0.816 0.575c4.127 2.75 10.816 6.416 21.047 11.534 40.435 20.554 77.486 30.974 110.126 30.974 19.059 0 37.215-2.647 53.958-7.867 15.702-4.899 34.262-12.345 55.167-22.132l0.462-0.224c3.308-1.655 7.472-2.495 12.378-2.495 6.518 0 13.953 1.365 22.099 4.060 8.963 2.964 16.714 6.261 23.038 9.799 7.69 4.3 15.053 8.231 21.892 11.692 10.322 5.225 16.281 7.168 21.979 7.168 9.408 0 17.952-3.568 24.709-10.317 6.765-6.774 10.332-15.318 10.332-24.724v-183.55c0-11.33-4.478-18.546-8.236-22.606-3.575-3.858-8.389-7.334-14.725-10.633-37.682-20.315-69.726-30.19-97.962-30.19-11.971 0-24.163 2.156-36.236 6.409-11.067 3.892-20.91 8.26-29.25 12.978-6.152 3.476-14.245 6.815-24.041 9.916-9.178 2.904-18.719 4.377-28.351 4.377-27.371 0-61.8-11.031-102.331-32.786l-0.104-0.055c-5.576-2.95-11.337-4.445-17.124-4.445zM137.198 363.411v-169.156c44.513 23.201 82.285 34.494 115.311 34.494 13.656 0 27.183-2.089 40.205-6.207 12.39-3.923 22.994-8.355 31.523-13.173 6.341-3.588 14.062-6.99 22.957-10.119 7.877-2.774 15.677-4.18 23.192-4.18 21.291 0 48.019 8.596 79.44 25.55l0.288 0.152c0.751 0.389 1.381 0.738 1.906 1.046v173.751c-6.358-3.217-13.235-6.89-20.446-10.921-8.493-4.752-18.548-9.063-29.88-12.81-12.134-4.012-23.719-6.046-34.435-6.046-10.958 0-20.951 2.194-29.706 6.522-19.218 8.99-36.040 15.756-49.998 20.111-12.95 4.037-27.171 6.085-42.261 6.085-26.407 0-57.487-8.995-92.373-26.734l-0.115-0.058c-8.911-4.457-13.39-6.963-15.607-8.306zM35.721-7.587c-3.454 3.458-5.186 7.552-5.186 12.281v354.589c0 4.733 1.732 8.826 5.186 12.279 3.457 3.458 7.551 5.185 12.279 5.185h6.743c4.733 0 8.825-1.726 12.28-5.185 3.458-3.453 5.184-7.547 5.184-12.279v-354.589c0-4.728-1.727-8.822-5.184-12.281-3.454-3.453-7.547-5.185-12.279-5.185h-6.743c-4.729 0-8.822 1.731-12.279 5.185z" />
<glyph unicode="&#xe64f;" d="M129.51 158.272c1.679-1.68 2.524-3.828 2.524-6.438 0-2.617-0.844-4.765-2.524-6.445s-3.828-2.515-6.438-2.515h-89.648c-2.617 0-4.765 0.836-6.445 2.515s-2.515 3.828-2.515 6.445c0 2.61 0.836 4.758 2.515 6.438s3.828 2.524 6.445 2.524h89.648c2.609 0 4.758-0.844 6.438-2.524zM313.283 318.796l-66.953-5.047-76.477 76.758c-5.234 5.226-11.578 7.844-19.047 7.844-7.289 0-13.641-2.524-19.054-7.563l-41.179-40.899c-5.234-5.235-7.844-11.485-7.844-18.765 0-7.476 2.609-13.828 7.844-19.055l76.757-76.758-5.039-67.227c-6.539 3.922-11.766 7.844-15.688 11.765l-94.125 94.125c-15.688 16.055-23.532 35.101-23.532 57.149 0 22.406 7.938 41.359 23.813 56.867l41.179 40.898c15.5 15.5 34.453 23.25 56.867 23.25 22.594 0 41.641-7.938 57.141-23.813l93.57-93.844c3.923-3.922 7.844-9.156 11.766-15.687zM147.439 100.569l-71.71-71.711c-1.875-1.688-4.023-2.524-6.445-2.524-2.242 0-4.391 0.836-6.446 2.524-1.679 1.86-2.516 4.008-2.516 6.438s0.836 4.578 2.516 6.445l71.719 71.719c1.859 1.672 4.008 2.515 6.438 2.515s4.578-0.844 6.446-2.515c1.679-1.875 2.524-4.024 2.524-6.445-0-2.43-0.844-4.579-2.524-6.445zM194.783 89.084v-89.641c0-2.61-0.844-4.758-2.524-6.445-1.679-1.68-3.828-2.524-6.438-2.524-2.617 0-4.766 0.844-6.446 2.524-1.688 1.688-2.524 3.836-2.524 6.445v89.64c0 2.61 0.836 4.758 2.524 6.438 1.679 1.68 3.828 2.524 6.446 2.524 2.609 0 4.758-0.844 6.438-2.524s2.524-3.828 2.524-6.438zM486.127 115.975c0-22.414-7.938-41.367-23.813-56.867l-41.18-40.899c-15.5-15.5-34.461-23.25-56.867-23.25-22.601 0-41.649 7.938-57.149 23.813l-93.563 93.844c-3.922 3.922-7.844 9.149-11.766 15.688l66.946 5.039 76.476-76.75c5.047-5.047 11.399-7.617 19.055-7.711s14 2.383 19.047 7.43l41.18 40.899c5.226 5.226 7.844 11.485 7.844 18.765 0 7.469-2.617 13.82-7.844 19.055l-76.757 77.032 5.047 66.953c6.531-3.922 11.765-7.844 15.688-11.766l94.125-94.125c15.687-16.063 23.531-35.117 23.531-57.149zM338.213 447.655v-89.64c0-2.617-0.844-4.765-2.524-6.446-1.68-1.688-3.828-2.524-6.438-2.524-2.617 0-4.765 0.836-6.445 2.524-1.688 1.68-2.524 3.828-2.524 6.446v89.64c0 2.61 0.836 4.758 2.524 6.446 1.68 1.679 3.828 2.523 6.445 2.523 2.61 0 4.758-0.844 6.438-2.523 1.68-1.688 2.524-3.837 2.524-6.446zM452.228 405.358l-71.719-71.719c-2.055-1.679-4.203-2.515-6.445-2.515s-4.39 0.836-6.438 2.515c-1.688 1.867-2.524 4.015-2.524 6.446 0 2.422 0.836 4.57 2.524 6.445l71.711 71.711c1.867 1.679 4.015 2.523 6.445 2.523 2.422 0 4.57-0.844 6.445-2.523 1.68-1.867 2.524-4.016 2.524-6.445s-0.844-4.578-2.524-6.438zM488.080 301.702c1.68-1.679 2.524-3.828 2.524-6.438 0-2.617-0.844-4.765-2.524-6.446-1.68-1.688-3.828-2.524-6.438-2.524h-89.641c-2.617 0-4.765 0.836-6.445 2.524-1.688 1.68-2.524 3.828-2.524 6.446 0 2.61 0.836 4.758 2.524 6.438 1.68 1.679 3.828 2.524 6.445 2.524h89.64c2.61 0 4.758-0.844 6.438-2.524z" />
</font>
</defs>
</svg>
