<svg xmlns="http://www.w3.org/2000/svg" width="75" height="47" viewBox="0 0 75 47" fill="none" id="tao-main-logo">
    <path d="M30.9502 26.4359C30.6026 26.563 30.2833 26.7583 30.0108 27.0104C29.7383 27.2624 29.5178 27.5664 29.3622 27.9047C29.2065 28.243 29.1187 28.609 29.1038 28.9816C29.0889 29.3543 29.1472 29.7262 29.2754 30.0761C29.5408 30.7858 30.0731 31.3613 30.7567 31.6776C31.4403 31.9939 32.22 32.0254 32.9266 31.7653C33.2742 31.6381 33.5934 31.4428 33.866 31.1908C34.1385 30.9387 34.3589 30.6348 34.5146 30.2965C34.6702 29.9581 34.758 29.5921 34.7729 29.2195C34.7878 28.8468 34.7296 28.4749 34.6014 28.1251C34.336 27.4153 33.8037 26.8398 33.1201 26.5235C32.4365 26.2072 31.6567 26.1757 30.9502 26.4359Z" fill="white"/>
    <path d="M33.7398 12.8292C33.062 12.524 32.2929 12.4971 31.5957 12.7541C30.8985 13.0111 30.3279 13.5318 30.0049 14.2059C29.8462 14.5442 29.7559 14.911 29.7392 15.2849C29.7224 15.6588 29.7797 16.0323 29.9075 16.3837C30.0353 16.7351 30.2312 17.0573 30.4837 17.3315C30.7362 17.6058 31.0403 17.8266 31.3783 17.9812C32.0616 18.302 32.843 18.3373 33.5521 18.0795C34.2612 17.8216 34.8404 17.2914 35.1635 16.6045C35.3194 16.2629 35.4063 15.8934 35.4189 15.5175C35.4316 15.1416 35.3699 14.767 35.2373 14.4155C35.1048 14.064 34.9041 13.7426 34.6469 13.4702C34.3898 13.1979 34.0814 12.9799 33.7398 12.8292Z" fill="white"/>
    <path d="M41.7295 3.47981C41.3819 3.60699 41.0626 3.80224 40.7901 4.05432C40.5176 4.30639 40.2971 4.61032 40.1415 4.94862C39.9858 5.28693 39.898 5.65293 39.8831 6.02558C39.8682 6.39823 39.9265 6.77017 40.0547 7.12002C40.3219 7.82838 40.8544 8.40246 41.5374 8.71846C42.2204 9.03445 42.9992 9.06705 43.7059 8.80921C44.4065 8.55045 44.9766 8.02158 45.2907 7.33892C45.6048 6.65626 45.6372 5.87573 45.3807 5.169C45.1153 4.45924 44.583 3.88373 43.8994 3.56746C43.2158 3.25118 42.436 3.21969 41.7295 3.47981Z" fill="white"/>
    <path d="M57.6389 4.17212C56.9563 3.853 56.1765 3.81764 55.4682 4.07367C54.7599 4.3297 54.18 4.85656 53.8537 5.54037C53.6975 5.88022 53.6092 6.24783 53.5941 6.62214C53.579 6.99644 53.6373 7.37007 53.7657 7.7216C53.8941 8.07313 54.09 8.39565 54.3422 8.67065C54.5944 8.94566 54.898 9.16774 55.2355 9.32417C55.9195 9.64045 56.6992 9.67342 57.407 9.41597C58.1149 9.15853 58.6943 8.63124 59.0207 7.94747C59.1779 7.60843 59.2669 7.24129 59.2825 6.86732C59.298 6.49334 59.2399 6.11997 59.1114 5.76883C58.9829 5.41768 58.7865 5.09575 58.5338 4.82167C58.281 4.54759 57.9769 4.32681 57.6389 4.17212Z" fill="white"/>
    <path d="M64.7084 14.1809C64.3604 14.3089 64.041 14.505 63.7684 14.7579C63.4958 15.0108 63.2753 15.3155 63.1197 15.6544C62.9641 15.9934 62.8764 16.3601 62.8616 16.7333C62.8468 17.1066 62.9052 17.4791 63.0335 17.8295C63.2989 18.5393 63.8312 19.1148 64.5148 19.4311C65.1984 19.7473 65.9782 19.7788 66.6847 19.5187C67.033 19.3925 67.353 19.1978 67.6261 18.9459C67.8993 18.694 68.1201 18.39 68.2759 18.0514C68.4317 17.7128 68.5193 17.3464 68.5337 16.9734C68.548 16.6004 68.4889 16.2283 68.3596 15.8785C68.0976 15.1658 67.5662 14.5869 66.8818 14.2687C66.1974 13.9504 65.4158 13.9189 64.7084 14.1809Z" fill="white"/>
    <path d="M42.4235 36.6298C41.7395 36.3135 40.9598 36.2806 40.2519 36.538C39.5441 36.7954 38.9647 37.3227 38.6383 38.0065C38.4809 38.3474 38.3927 38.7166 38.3789 39.0924C38.365 39.4682 38.4258 39.843 38.5577 40.1947C38.6896 40.5465 38.8898 40.8681 39.1467 41.1406C39.4036 41.4132 39.7119 41.6312 40.0535 41.7818C40.7359 42.1032 41.5165 42.1398 42.2254 41.8835C42.9343 41.6273 43.5142 41.099 43.8387 40.4136C43.9951 40.0719 44.0825 39.7022 44.0958 39.3261C44.1092 38.95 44.0483 38.575 43.9166 38.2229C43.7849 37.8707 43.585 37.5486 43.3287 37.2751C43.0724 37.0016 42.7646 36.7822 42.4235 36.6298Z" fill="white"/>
    <path d="M53.9736 37.1368C53.2723 37.3973 52.7021 37.9278 52.3881 38.6118C52.0741 39.2958 52.042 40.0775 52.2987 40.7854C52.5659 41.4938 53.0984 42.0679 53.7814 42.3839C54.4645 42.6999 55.2433 42.7325 55.9499 42.4746C56.6512 42.2141 57.2214 41.6836 57.5354 40.9996C57.8494 40.3156 57.8815 39.5339 57.6248 38.826C57.3558 38.119 56.8231 37.5463 56.1406 37.2306C55.4582 36.9149 54.6803 36.8812 53.9736 37.1368Z" fill="white"/>
    <path d="M66.2819 27.9731C65.5985 27.6523 64.8171 27.617 64.108 27.8749C63.399 28.1328 62.8198 28.663 62.4967 29.3498C62.3395 29.6889 62.2505 30.056 62.2349 30.43C62.2193 30.804 62.2775 31.1773 62.406 31.5285C62.5345 31.8796 62.7308 32.2016 62.9836 32.4756C63.2363 32.7497 63.5405 32.9705 63.8785 33.1252C64.5648 33.4516 65.3516 33.49 66.066 33.2319C66.7804 32.9738 67.3641 32.4403 67.6888 31.7485C67.8452 31.4079 67.9329 31.0393 67.9468 30.6642C67.9606 30.2891 67.9003 29.915 67.7693 29.5636C67.6384 29.2122 67.4395 28.8907 67.1841 28.6176C66.9287 28.3445 66.622 28.1255 66.2819 27.9731Z" fill="white"/>
    <path d="M39.1668 16.4863C38.7342 16.2787 38.238 16.2508 37.7853 16.4088C37.3325 16.5668 36.9595 16.898 36.7466 17.3309C36.6402 17.5492 36.5785 17.7868 36.5652 18.0297C36.552 18.2725 36.5874 18.5156 36.6695 18.7443C36.7517 18.973 36.8787 19.1826 37.043 19.3606C37.2073 19.5386 37.4056 19.6814 37.6259 19.7803C38.0601 19.9861 38.5567 20.013 39.0102 19.8553C39.4638 19.6975 39.8384 19.3676 40.0545 18.9357C40.1595 18.7167 40.2199 18.4787 40.2319 18.2358C40.244 17.9928 40.2076 17.7499 40.1248 17.5215C40.042 17.293 39.9145 17.0837 39.7499 16.9059C39.5854 16.728 39.3871 16.5854 39.1668 16.4863Z" fill="white"/>
    <path d="M44.2419 10.4984C44.0181 10.5787 43.8124 10.7028 43.6364 10.8636C43.4604 11.0245 43.3177 11.2188 43.2166 11.4355C43.1154 11.6521 43.0577 11.8869 43.0468 12.1261C43.0359 12.3654 43.0721 12.6044 43.1532 12.8295C43.2362 13.0552 43.3625 13.2623 43.5248 13.4388C43.6871 13.6153 43.8824 13.7579 44.0993 13.8582C44.3163 13.9586 44.5508 14.0149 44.7893 14.0239C45.0279 14.0329 45.2659 13.9944 45.4896 13.9106C45.7137 13.8322 45.9201 13.7095 46.0966 13.5496C46.2731 13.3898 46.4162 13.1961 46.5176 12.9798C46.6189 12.7636 46.6765 12.5291 46.687 12.2901C46.6974 12.0511 46.6604 11.8124 46.5783 11.5879C46.4105 11.1319 46.0706 10.7613 45.6329 10.5572C45.1951 10.3531 44.695 10.3319 44.2419 10.4984Z" fill="white"/>
    <path d="M58.9795 17.348C58.7552 17.4272 58.5488 17.5508 58.3725 17.7116C58.1962 17.8724 58.0536 18.0671 57.9529 18.2843C57.8523 18.5014 57.7957 18.7367 57.7865 18.9762C57.7773 19.2158 57.8156 19.4547 57.8993 19.6791C58.0671 20.1331 58.4056 20.5021 58.8414 20.7061C59.2772 20.9101 59.7752 20.9325 60.2273 20.7686C60.4517 20.6893 60.6582 20.5658 60.8348 20.4051C61.0114 20.2445 61.1545 20.0501 61.2558 19.8331C61.3571 19.6161 61.4146 19.381 61.425 19.1414C61.4353 18.9018 61.3982 18.6626 61.316 18.4376C61.1482 17.9815 60.8083 17.611 60.3705 17.4068C59.9328 17.2027 59.4327 17.1815 58.9795 17.348Z" fill="white"/>
    <path d="M44.7258 31.723C44.2936 31.5131 43.7965 31.484 43.3432 31.6423C42.8898 31.8005 42.5168 32.1331 42.3057 32.5676C42.2045 32.7842 42.147 33.0188 42.1365 33.258C42.126 33.4972 42.1628 33.7361 42.2446 33.9608C42.3264 34.1855 42.4516 34.3916 42.6131 34.5671C42.7745 34.7426 42.9689 34.884 43.185 34.9831C43.6175 35.1908 44.1137 35.2186 44.5665 35.0606C45.0193 34.9026 45.3923 34.5715 45.6051 34.1385C45.7063 33.922 45.7638 33.6873 45.7743 33.4481C45.7847 33.209 45.748 32.9701 45.6662 32.7454C45.5844 32.5206 45.4591 32.3145 45.2977 32.139C45.1363 31.9635 44.9419 31.8221 44.7258 31.723Z" fill="white"/>
    <path d="M59.9932 26.1738C59.5606 25.9662 59.0644 25.9383 58.6117 26.0963C58.1589 26.2543 57.7859 26.5855 57.5731 27.0184C57.4705 27.2324 57.4108 27.4648 57.3974 27.7021C57.384 27.9394 57.4172 28.177 57.495 28.4014C57.5727 28.6258 57.6936 28.8325 57.8507 29.0097C58.0078 29.1868 58.1981 29.331 58.4105 29.434C58.8431 29.6416 59.3393 29.6695 59.792 29.5115C60.2448 29.3535 60.6178 29.0223 60.8306 28.5894C60.9332 28.3754 60.9929 28.143 61.0063 27.9057C61.0197 27.6684 60.9865 27.4308 60.9087 27.2064C60.831 26.982 60.7101 26.7753 60.553 26.5982C60.3959 26.421 60.2056 26.2768 59.9932 26.1738Z" fill="white"/>
    <path d="M41.5035 24.3917C41.2898 24.4717 41.1043 24.6137 40.9704 24.7997C40.8365 24.9858 40.7602 25.2076 40.7509 25.4373C40.7417 25.667 40.8001 25.8943 40.9186 26.0907C41.0372 26.287 41.2107 26.4436 41.4173 26.5408C41.6238 26.6379 41.8543 26.6713 42.0796 26.6367C42.305 26.6021 42.5151 26.501 42.6837 26.3462C42.8522 26.1915 42.9716 25.9899 43.0269 25.7668C43.0821 25.5438 43.0707 25.3093 42.9941 25.0928C42.8884 24.8006 42.672 24.5627 42.3926 24.4313C42.1131 24.2998 41.7933 24.2856 41.5035 24.3917Z" fill="white"/>
    <path d="M42.6415 18.8262C42.3628 18.6931 42.043 18.6771 41.7526 18.7816C41.4621 18.8862 41.2246 19.1027 41.0923 19.3836C41.0274 19.5227 40.9905 19.6734 40.9836 19.827C40.9767 19.9805 41 20.1339 41.0522 20.2784C41.1043 20.4228 41.1843 20.5554 41.2875 20.6686C41.3906 20.7817 41.515 20.8732 41.6534 20.9377C41.9335 21.0678 42.2532 21.0814 42.5432 20.9755C42.8332 20.8696 43.0701 20.6527 43.2026 20.3718C43.2685 20.2335 43.3062 20.0833 43.3135 19.93C43.3209 19.7768 43.2978 19.6236 43.2455 19.4796C43.1932 19.3355 43.1128 19.2034 43.009 19.0912C42.9053 18.979 42.7804 18.8889 42.6415 18.8262Z" fill="white"/>
    <path d="M45.9162 14.9914C45.7727 15.0415 45.6404 15.12 45.5271 15.2221C45.4139 15.3242 45.3219 15.448 45.2564 15.5863C45.191 15.7246 45.1534 15.8746 45.1459 16.0277C45.1384 16.1807 45.1612 16.3337 45.2128 16.4779C45.3221 16.7692 45.5402 17.0058 45.8205 17.1369C46.1007 17.2679 46.4207 17.283 46.7118 17.1789C46.8556 17.1279 46.9879 17.0486 47.1009 16.9455C47.214 16.8424 47.3055 16.7176 47.3702 16.5785C47.4349 16.4393 47.4715 16.2885 47.4778 16.1349C47.4841 15.9813 47.46 15.828 47.4068 15.6839C47.2995 15.3933 47.0824 15.1574 46.8031 15.0276C46.5239 14.8979 46.205 14.8848 45.9162 14.9914Z" fill="white"/>
    <path d="M52.4135 15.3043C52.1322 15.1738 51.8113 15.1599 51.5199 15.2658C51.2286 15.3716 50.9901 15.5887 50.8559 15.8702C50.7594 16.0803 50.7266 16.3146 50.7618 16.5435C50.7969 16.7724 50.8984 16.9857 51.0535 17.1565C51.2086 17.3273 51.4103 17.4481 51.6333 17.5036C51.8562 17.559 52.0905 17.5468 52.3066 17.4683C52.5226 17.3898 52.7108 17.2486 52.8475 17.0624C52.9842 16.8763 53.0632 16.6535 53.0747 16.4222C53.0861 16.1909 53.0294 15.9613 52.9118 15.7624C52.7941 15.5635 52.6208 15.4041 52.4135 15.3043Z" fill="white"/>
    <path d="M55.3217 19.3748C55.1779 19.4258 55.0456 19.5051 54.9325 19.6082C54.8195 19.7113 54.7279 19.8361 54.6632 19.9752C54.5985 20.1144 54.5619 20.2652 54.5557 20.4188C54.5494 20.5724 54.5735 20.7257 54.6266 20.8698C54.734 21.1604 54.951 21.3963 55.2303 21.5261C55.5096 21.6558 55.8285 21.6689 56.1172 21.5623C56.2593 21.5105 56.3898 21.4308 56.5013 21.328C56.6127 21.2251 56.703 21.1011 56.7668 20.963C56.8306 20.8248 56.8667 20.6754 56.8731 20.5231C56.8794 20.3709 56.856 20.2189 56.8039 20.0758C56.6946 19.7884 56.4792 19.5549 56.2028 19.4242C55.9265 19.2935 55.6107 19.2758 55.3217 19.3748Z" fill="white"/>
    <path d="M46.1924 28.5724C45.9122 28.4422 45.5925 28.4286 45.3025 28.5345C45.0126 28.6405 44.7756 28.8574 44.6431 29.1382C44.5787 29.2772 44.5423 29.4278 44.5361 29.5811C44.5299 29.7344 44.554 29.8874 44.607 30.0313C44.66 30.1751 44.7408 30.3069 44.8448 30.4189C44.9487 30.531 45.0738 30.621 45.2126 30.6839C45.4918 30.8114 45.8094 30.8236 46.0974 30.7178C46.3854 30.612 46.6209 30.3967 46.7534 30.118C46.8181 29.9795 46.8549 29.8294 46.8617 29.6765C46.8685 29.5235 46.8451 29.3708 46.7929 29.227C46.7407 29.0832 46.6608 28.9514 46.5577 28.839C46.4546 28.7266 46.3304 28.636 46.1924 28.5724Z" fill="white"/>
    <path d="M50.941 28.8174C50.7311 28.9 50.55 29.0431 50.4203 29.2289C50.2905 29.4147 50.2179 29.6349 50.2114 29.862C50.2049 30.0892 50.2649 30.3132 50.3839 30.5062C50.5029 30.6992 50.6756 30.8526 50.8804 30.9472C51.0852 31.0419 51.3132 31.0736 51.5358 31.0384C51.7584 31.0032 51.9658 30.9027 52.1321 30.7494C52.2984 30.5962 52.4163 30.3969 52.4711 30.1764C52.5258 29.956 52.515 29.7242 52.44 29.5099C52.3869 29.365 52.3059 29.2321 52.2018 29.1189C52.0976 29.0056 51.9723 28.9142 51.833 28.8498C51.6938 28.7855 51.5433 28.7495 51.3902 28.7439C51.2372 28.7384 51.0845 28.7633 50.941 28.8174Z" fill="white"/>
    <path d="M55.9658 25.0253C55.6864 24.8968 55.3683 24.8831 55.0791 24.9872C54.7899 25.0913 54.5522 25.3049 54.4166 25.5828C54.3521 25.7218 54.3157 25.8723 54.3095 26.0256C54.3033 26.1789 54.3274 26.332 54.3804 26.4758C54.4334 26.6196 54.5143 26.7514 54.6182 26.8634C54.7222 26.9755 54.8472 27.0655 54.986 27.1284C55.2661 27.2585 55.5858 27.2721 55.8758 27.1662C56.1658 27.0603 56.4027 26.8434 56.5352 26.5625C56.5984 26.4239 56.6337 26.2741 56.6392 26.1217C56.6447 25.9693 56.6203 25.8173 56.5674 25.6745C56.5145 25.5316 56.4341 25.4007 56.3309 25.2893C56.2276 25.1779 56.1035 25.0882 55.9658 25.0253Z" fill="white"/>
    <path d="M44.131 23.8852C44.0396 23.9182 43.9555 23.9692 43.8837 24.0351C43.8118 24.101 43.7536 24.1806 43.7123 24.2693C43.6711 24.358 43.6476 24.454 43.6433 24.5519C43.639 24.6498 43.6539 24.7475 43.6872 24.8396C43.7551 25.0265 43.8938 25.1786 44.0728 25.2625C44.2517 25.3464 44.4564 25.3553 44.6419 25.2872C44.7331 25.2534 44.8169 25.2018 44.8884 25.1353C44.9599 25.0688 45.0177 24.9888 45.0585 24.8997C45.0994 24.8107 45.1224 24.7145 45.1263 24.6165C45.1303 24.5185 45.115 24.4207 45.0815 24.3286C45.048 24.2365 44.9968 24.152 44.9309 24.0799C44.8649 24.0078 44.7856 23.9495 44.6973 23.9084C44.6091 23.8672 44.5136 23.8439 44.4165 23.84C44.3193 23.836 44.2223 23.8514 44.131 23.8852Z" fill="white"/>
    <path d="M44.8606 20.321C44.7726 20.2794 44.6773 20.2557 44.5803 20.2513C44.4832 20.2468 44.3862 20.2616 44.2949 20.295C44.2035 20.3283 44.1195 20.3795 44.0478 20.4455C43.976 20.5116 43.9178 20.5913 43.8766 20.68C43.8353 20.7687 43.8118 20.8648 43.8074 20.9627C43.803 21.0606 43.8177 21.1584 43.8508 21.2505C43.8838 21.3427 43.9345 21.4274 44 21.4998C44.0655 21.5721 44.1445 21.6308 44.2325 21.6724C44.4117 21.7537 44.6152 21.7612 44.7998 21.6934C44.9843 21.6255 45.1354 21.4877 45.2207 21.3092C45.2627 21.2207 45.2867 21.1246 45.2912 21.0266C45.2958 20.9286 45.2809 20.8306 45.2473 20.7385C45.2138 20.6464 45.1623 20.562 45.0958 20.4903C45.0294 20.4186 44.9494 20.3611 44.8606 20.321Z" fill="white"/>
    <path d="M46.9458 17.8379C46.81 17.8896 46.6923 17.9805 46.6076 18.0992C46.5228 18.218 46.4747 18.3594 46.4693 18.5057C46.4638 18.6519 46.5014 18.7965 46.5771 18.9213C46.6528 19.0462 46.7634 19.1457 46.895 19.2074C47.0266 19.2691 47.1733 19.2902 47.3168 19.2682C47.4602 19.2461 47.594 19.1818 47.7014 19.0834C47.8088 18.9849 47.8849 18.8567 47.9203 18.7148C47.9558 18.5729 47.9488 18.4235 47.9004 18.2856C47.8307 18.1001 47.6918 17.9494 47.5134 17.8658C47.3351 17.7821 47.1313 17.7721 46.9458 17.8379Z" fill="white"/>
    <path d="M51.1157 18.0492C50.9367 17.9647 50.7319 17.9545 50.5455 18.0209C50.3591 18.0872 50.206 18.2248 50.1192 18.4039C50.0773 18.4935 50.0536 18.5907 50.0495 18.6898C50.0454 18.7888 50.0609 18.8876 50.0953 18.9805C50.1296 19.0734 50.182 19.1583 50.2494 19.2305C50.3168 19.3026 50.3978 19.3604 50.4876 19.4005C50.6668 19.4818 50.8703 19.4893 51.0549 19.4215C51.2395 19.3537 51.3905 19.2158 51.4758 19.0374C51.5167 18.9486 51.5398 18.8527 51.5438 18.755C51.5478 18.6572 51.5326 18.5597 51.4992 18.4679C51.4657 18.3761 51.4146 18.2918 51.3488 18.22C51.283 18.1481 51.2038 18.0901 51.1157 18.0492Z" fill="white"/>
    <path d="M52.9767 20.6758C52.8853 20.7089 52.8012 20.7598 52.7294 20.8257C52.6575 20.8916 52.5993 20.9712 52.558 21.0599C52.5168 21.1486 52.4933 21.2447 52.489 21.3426C52.4847 21.4404 52.4996 21.5382 52.5329 21.6302C52.6024 21.8074 52.7368 21.951 52.9082 22.0311C53.0796 22.1113 53.275 22.122 53.4541 22.061C53.5462 22.0289 53.631 21.9785 53.7035 21.9128C53.776 21.8471 53.8346 21.7674 53.876 21.6784C53.9174 21.5894 53.9406 21.4929 53.9444 21.3947C53.9482 21.2965 53.9324 21.1985 53.8979 21.1066C53.8284 20.9294 53.694 20.7858 53.5226 20.7057C53.3512 20.6255 53.1557 20.6148 52.9767 20.6758Z" fill="white"/>
    <path d="M47.1386 26.5628C46.9595 26.4784 46.7547 26.4682 46.5683 26.5345C46.3819 26.6009 46.2288 26.7385 46.142 26.9176C46.0618 27.097 46.0546 27.3011 46.1219 27.4859C46.1893 27.6706 46.3258 27.8214 46.5021 27.9057C46.6812 27.9902 46.886 28.0004 47.0724 27.934C47.2588 27.8677 47.4119 27.7301 47.4987 27.551C47.5407 27.4625 47.5647 27.3664 47.5693 27.2684C47.5739 27.1704 47.5589 27.0724 47.5254 26.9803C47.4918 26.8882 47.4403 26.8038 47.3738 26.7321C47.3074 26.6604 47.2274 26.6029 47.1386 26.5628Z" fill="white"/>
    <path d="M50.1611 26.6894C50.0263 26.7423 49.9099 26.834 49.8264 26.9532C49.743 27.0724 49.6961 27.2136 49.6917 27.3595C49.6874 27.5053 49.7256 27.6492 49.8017 27.7732C49.8779 27.8973 49.9885 27.996 50.1199 28.057C50.2513 28.1181 50.3975 28.1388 50.5405 28.1166C50.6835 28.0944 50.8168 28.0302 50.9239 27.9322C51.0309 27.8341 51.107 27.7064 51.1426 27.565C51.1782 27.4236 51.1718 27.2747 51.1241 27.137C51.0526 26.9509 50.9122 26.8001 50.7324 26.7166C50.5527 26.633 50.3478 26.6233 50.1611 26.6894Z" fill="white"/>
    <path d="M53.3857 24.2909C53.2079 24.2067 53.0044 24.1968 52.8193 24.2632C52.6343 24.3297 52.4827 24.4671 52.3976 24.6456C52.3556 24.7341 52.3316 24.8302 52.327 24.9282C52.3224 25.0263 52.3373 25.1242 52.3709 25.2163C52.4045 25.3084 52.456 25.3928 52.5224 25.4645C52.5888 25.5362 52.6688 25.5938 52.7577 25.6338C52.9367 25.7183 53.1415 25.7284 53.3279 25.6621C53.5143 25.5957 53.6674 25.4582 53.7542 25.2791C53.7948 25.1898 53.8174 25.0934 53.8209 24.9953C53.8243 24.8972 53.8084 24.7994 53.7742 24.7075C53.7399 24.6156 53.6879 24.5315 53.6213 24.46C53.5546 24.3885 53.4745 24.331 53.3857 24.2909Z" fill="white"/>
    <path d="M56.2346 0C54.4359 0.0309281 52.7209 0.771653 51.4574 2.06326C50.194 3.35486 49.4829 5.09445 49.4766 6.9088C49.4874 7.89623 49.7127 8.86925 50.1367 9.75937C50.5606 10.6495 51.1728 11.4351 51.9302 12.0608C51.8028 12.4801 51.8301 12.9317 52.0072 13.3323C52.1842 13.7328 52.4989 14.0552 52.8933 14.2399C53.2864 14.4234 53.731 14.4614 54.1491 14.3471C54.5672 14.2328 54.932 13.9735 55.1794 13.6149C56.1686 13.7932 57.1843 13.7533 58.1567 13.4981C59.1291 13.2428 60.0351 12.7782 60.8126 12.1361C61.59 11.4941 62.2203 10.6899 62.6603 9.77879C63.1002 8.86768 63.3393 7.87129 63.3611 6.85813C63.3611 3.02366 60.472 0 56.2346 0ZM56.4523 11.25C55.8753 11.259 55.3022 11.152 54.7666 10.9352C54.231 10.7184 53.7435 10.3962 53.3327 9.98732C52.9219 9.57849 52.5959 9.09122 52.3738 8.55396C52.1517 8.01671 52.0379 7.44021 52.0391 6.85813C52.0341 5.98283 52.2866 5.12571 52.7647 4.39514C53.2427 3.66458 53.9248 3.09339 54.7247 2.75381C55.5246 2.41422 56.4064 2.32149 57.2586 2.48734C58.1108 2.6532 58.895 3.07018 59.5122 3.68556C60.1294 4.30095 60.5518 5.0871 60.726 5.9446C60.9002 6.8021 60.8183 7.69244 60.4908 8.50303C60.1633 9.31362 59.6048 10.0081 58.886 10.4985C58.1671 10.989 57.3202 11.2535 56.4523 11.2585V11.25Z" fill="white"/>
    <path d="M54.7095 32.9559H54.3745C54.1779 32.5468 53.8381 32.2256 53.4207 32.054C53.0032 31.8825 52.5376 31.8728 52.1135 32.0268C51.6938 32.1703 51.3417 32.4655 51.1252 32.8555C50.9087 33.2454 50.8431 33.7024 50.9411 34.1383C50.0174 34.7789 49.2604 35.6345 48.7341 36.6328C48.2079 37.6311 47.9279 38.7426 47.918 39.8731C47.918 41.7301 48.6494 43.511 49.9513 44.8241C51.2532 46.1372 53.019 46.8748 54.8602 46.8748C56.7015 46.8748 58.4673 46.1372 59.7692 44.8241C61.0711 43.511 61.8025 41.7301 61.8025 39.8731C61.8277 35.9795 58.9469 32.9559 54.7095 32.9559ZM54.9189 44.2059C54.3408 44.2149 53.7667 44.1073 53.2304 43.8894C52.6942 43.6714 52.2065 43.3476 51.7961 42.9368C51.3857 42.5261 51.0609 42.0367 50.8407 41.4975C50.6206 40.9583 50.5095 40.3802 50.514 39.7971C50.509 38.9214 50.7617 38.064 51.2401 37.3332C51.7186 36.6025 52.4011 36.0313 53.2015 35.6919C54.0019 35.3526 54.8842 35.2603 55.7365 35.4269C56.5889 35.5934 57.3732 36.0112 57.9901 36.6275C58.6069 37.2437 59.0287 38.0306 59.2019 38.8887C59.3752 39.7468 59.2921 40.6374 58.9633 41.4478C58.6345 42.2583 58.0747 42.9521 57.3548 43.4416C56.6348 43.9311 55.7871 44.1941 54.9189 44.1975V44.2059Z" fill="white"/>
    <path d="M73.9699 13.6827C73.9699 13.235 73.6433 12.9985 72.965 12.9985H72.0605V15.4817H72.5128V14.4597H72.965L73.4507 15.5239H73.9615L73.4255 14.3921C73.5902 14.369 73.7393 14.2818 73.841 14.1492C73.9427 14.0166 73.989 13.8492 73.9699 13.6827ZM72.898 14.1219H72.5128V13.2773H72.8812C73.3083 13.2773 73.5009 13.4039 73.5009 13.708C73.5009 14.0121 73.3083 14.1219 72.898 14.1219Z" fill="white"/>
    <path d="M74.3884 12.7702C74.193 12.5633 73.9578 12.3988 73.6971 12.287C73.4365 12.1751 73.1559 12.1183 72.8726 12.1198C72.5975 12.1158 72.3245 12.1692 72.0708 12.2768C71.8171 12.3843 71.5883 12.5437 71.3987 12.7448C70.9915 13.162 70.7604 13.722 70.7539 14.3074C70.7527 14.8794 70.9754 15.4288 71.3736 15.8361C71.5669 16.0417 71.7992 16.206 72.0567 16.3192C72.3142 16.4323 72.5917 16.4921 72.8726 16.4949C73.4405 16.4872 73.9823 16.2534 74.38 15.8445C74.5801 15.6432 74.738 15.4034 74.8445 15.1394C74.9509 14.8753 75.0037 14.5924 74.9997 14.3074C75.0035 13.734 74.784 13.182 74.3884 12.7702ZM74.1874 15.6418C74.0144 15.8185 73.8084 15.9587 73.5812 16.0544C73.3541 16.1501 73.1104 16.1993 72.8642 16.1993C72.6226 16.197 72.3839 16.1458 72.1624 16.0486C71.9408 15.9513 71.7409 15.8101 71.5746 15.6334C71.2268 15.2715 71.0342 14.786 71.0386 14.282C71.0441 13.7726 71.2452 13.2851 71.5997 12.9222C71.769 12.7468 71.9715 12.6073 72.1952 12.5121C72.4188 12.4169 72.6591 12.3678 72.9019 12.3678C73.1447 12.3678 73.385 12.4169 73.6087 12.5121C73.8323 12.6073 74.0348 12.7468 74.2041 12.9222C74.5504 13.2845 74.7402 13.7704 74.7317 14.2736C74.7403 14.5205 74.6994 14.7667 74.6117 14.9974C74.5239 15.2281 74.391 15.4387 74.2209 15.6165L74.1874 15.6418Z" fill="white"/>
    <path d="M39.7264 26.284C39.5694 25.8641 39.2657 25.5166 38.8725 25.3066C38.4793 25.0967 38.0236 25.0388 37.591 25.1438C36.7386 23.9491 35.5341 23.0562 34.1492 22.5921C32.7643 22.128 31.2694 22.1164 29.8776 22.5591C28.4858 23.0017 27.268 23.876 26.3975 25.0574C25.527 26.2387 25.0483 27.667 25.0296 29.1387V29.1894C25.0215 30.0946 25.1938 30.9923 25.5364 31.829C25.879 32.6657 26.3847 33.4245 27.0237 34.0603C27.6626 34.696 28.4218 35.1958 29.2559 35.5299C30.0901 35.8641 30.9824 36.0257 31.8797 36.0053C32.7839 36.0222 33.6824 35.8569 34.5225 35.5193C35.3626 35.1817 36.1275 34.6784 36.7724 34.039C37.4173 33.3996 37.9293 32.6369 38.2783 31.7954C38.6274 30.954 38.8065 30.0508 38.8053 29.1387C38.8053 28.9529 38.8053 28.7671 38.8053 28.5898C39.2221 28.3972 39.5499 28.0509 39.7213 27.622C39.8926 27.1931 39.8945 26.7142 39.7264 26.284ZM36.1757 29.1894C36.1936 29.7532 36.0958 30.3146 35.8885 30.8384C35.6812 31.3623 35.3688 31.8373 34.971 32.2338C34.5732 32.6302 34.0985 32.9396 33.5767 33.1424C33.0548 33.3452 32.4971 33.4371 31.9384 33.4124C31.3822 33.4225 30.8296 33.3207 30.3128 33.113C29.7961 32.9053 29.3256 32.5959 28.9288 32.2027C28.5319 31.8096 28.2167 31.3406 28.0016 30.8232C27.7865 30.3059 27.6758 29.7504 27.6758 29.1894C27.6572 28.6298 27.7527 28.0722 27.9565 27.5513C28.1603 27.0305 28.4681 26.5574 28.8607 26.1614C29.2533 25.7655 29.7224 25.4551 30.2388 25.2495C30.7553 25.044 31.3081 24.9476 31.863 24.9664C32.4212 24.9529 32.9766 25.0522 33.4962 25.2583C34.0159 25.4645 34.4894 25.7734 34.8889 26.1669C35.2884 26.5604 35.6059 27.0305 35.8226 27.5496C36.0392 28.0687 36.1508 28.6262 36.1506 29.1894H36.1757Z" fill="white"/>
    <path d="M16.974 22.3311C15.2391 22.3076 13.5214 22.6801 11.9494 23.4207L12.7869 25.8447C13.9688 25.2949 15.2538 25.0069 16.5553 25.0001C18.6573 25.0001 19.8045 25.9967 19.8045 27.8126V28.0575C18.6249 27.6773 17.3915 27.4947 16.1533 27.517C13.08 27.517 10.8105 28.9105 10.8105 31.8244V31.8751C10.8105 34.5187 13.0046 35.9376 15.5085 35.9376C16.3158 35.9678 17.1195 35.8133 17.8591 35.4857C18.5988 35.158 19.2553 34.6657 19.7794 34.0457V35.6673H22.7774V27.8886C22.769 24.3666 20.8681 22.3311 16.974 22.3311ZM19.6119 30.9291C19.6119 32.6183 18.1129 33.6994 16.1198 33.6994C14.6878 33.6994 13.5657 32.9984 13.5657 31.7484V31.6977C13.5657 30.4308 14.6878 29.6538 16.5888 29.6538C17.6191 29.6484 18.6424 29.8256 19.6119 30.1774V30.9291Z" fill="white"/>
    <path d="M4.69797 18.9102H1.67486V22.525H0V25.1179H1.67486V32.0521C1.67486 34.9406 3.24922 35.9203 5.46841 35.9203C6.42172 35.9433 7.36394 35.7101 8.19842 35.2447V32.7784C7.61617 33.0728 6.97387 33.226 6.32258 33.2261C6.10094 33.2591 5.87471 33.2391 5.66209 33.1679C5.44946 33.0967 5.25638 32.9761 5.09836 32.8159C4.94035 32.6557 4.8218 32.4604 4.75226 32.2456C4.68272 32.0307 4.66413 31.8025 4.69797 31.5791V25.1179H8.23192V22.525H4.69797V18.9102Z" fill="white"/>
</svg>